<svg xmlns:rdf="http://www.w3.org/1999/02/22-rdf-syntax-ns#" xmlns="http://www.w3.org/2000/svg" height="500.004mm" width="500.004mm" version="1.1" xmlns:cc="http://creativecommons.org/ns#" xmlns:dc="http://purl.org/dc/elements/1.1/" viewBox="0 0 1771.6676 1771.6676">
	<path d="m1227.48 401.637c-208.759 0-377.984 169.226-377.984 377.984 0 208.728 169.225 377.955 377.984 377.955s377.986-169.227 377.986-377.955c0-208.758-169.227-377.984-377.986-377.984zm-830.01 17.7715-318.996 724.324h236.133l143.75-374.813 143.75 374.813h236.133l-318.996-724.324h-60.6504-0.23633-0.23633-60.6504zm829.535 195.17c91.1671 0 165.045 73.8746 165.045 165.043 0 91.1375-73.8778 165.045-165.045 165.045s-165.043-73.9074-165.043-165.045c0-91.1684 73.8758-165.043 165.043-165.043zm-192.432 591.164v102.863h19.3105v-102.863h-19.3105zm40.1113 2.1113c-6.9035 0-11.5527 4.7878-11.5527 11.6914 0 6.9129 4.6492 11.5606 11.5527 11.5606 6.9034 0 11.6914-4.6477 11.6914-11.5606 0-6.9036-4.788-11.6914-11.6914-11.6914zm-200.346 3.2383-19.2988 10.5684v16.4882h-11.9785v17.334h11.9785v22.5469c0 22.9644 7.32948 30.5742 29.7285 30.5742h2.82031v-18.039c-11.8398 0-13.25-1.6878-13.25-12.6739v-22.4082h13.25v-17.334h-13.25v-27.0566zm342.504 25.6465c-8.0262 0-14.9378 3.5257-19.4473 9.2969v-7.8868h-19.1621v70.4551h19.3106v-38.4707c0-11.8399 6.0486-16.9062 13.3789-16.9062 8.6014 0 12.9629 5.4936 12.9629 14.9394v40.4375h19.5879v-42.9805c0-18.1766-10.0033-28.8847-26.6309-28.8847zm350.836 0c-8.0261 0-14.9377 3.5257-19.4472 9.2969v-7.8868h-19.1602v70.4551h19.3086v-38.4707c0-11.8399 6.0579-16.9062 13.3789-16.9062 8.6015 0 12.9629 5.4936 12.9629 14.9394v40.4375h19.5879v-42.9805c0-18.1766-10.0032-28.8847-26.6309-28.8847zm-159.738 0c-9.4459 0-16.6273 3.9431-21.1368 9.4453v-8.0351h-19.3105v102.865h19.3105v-39.3144c4.5095 5.2144 12.1167 8.3144 21.4141 8.3144 14.9388 0 33.8223-11.84 33.8223-36.6426 0-24.9321-18.1772-36.6328-34.0996-36.6328zm-597.568 0c-16.0616 0-25.7852 9.1571-25.7852 21.414 0 12.9627 8.73986 18.0397 17.332 20.8516 8.74064 2.9597 17.334 3.6645 17.334 8.0352 0 3.9431-2.11631 6.1972-7.60937 6.1972-4.64867 0-8.5918-2.1155-8.5918-7.8867v-0.5644h-19.4492c0.002 16.9114 9.44847 25.2148 28.041 25.2148 17.3328 0 26.2129-10.9872 26.2129-23.2441 0-12.6845-8.45375-17.7583-16.916-20.7188-8.59217-2.9597-17.0449-3.6564-17.0449-7.748 0-2.9601 2.25509-5.6328 7.04297-5.6328 4.78784 0 8.03516 1.9669 8.03516 7.8867v0.2832h18.7441c0-16.2009-11.414-24.0879-27.3457-24.0879zm-149.889 0c-15.9224 0-34.2383 11.6915-34.2383 36.6329 0 24.8025 19.0201 36.6328 33.959 36.6328 9.15819 0 16.6287-3.7943 21.2774-9.297v7.8946h19.3086v-70.4629h-19.3086v6.9042c-4.64867-4.9274-11.8306-8.3046-20.998-8.3046zm322.49 0c-15.9225 0-34.2402 11.6915-34.2402 36.6329 0 24.8025 19.0221 36.6328 33.9609 36.6328 9.15818 0 16.6287-3.7943 21.2773-9.297v7.8946h19.3086v-70.4629h-19.3086v6.9042c-4.64867-4.9274-11.8399-8.3046-20.998-8.3046zm144 0c-15.9225 0-34.2403 11.6915-34.2403 36.6329 0 24.8025 19.0221 36.6328 33.961 36.6328 9.1581 0 16.6286-3.7943 21.2773-9.297v7.8946h19.3086v-70.4629h-19.3086v6.9042c-4.6487-4.9274-11.8306-8.3046-20.998-8.3046zm196.547 0c-20.2927 0-36.4941 16.3403-36.4941 36.6329 0 20.2929 16.2014 36.6328 36.4941 36.6328 20.2928 0 36.502-16.3399 36.502-36.6328 0-20.2926-16.2092-36.6329-36.502-36.6329zm161.264 0c-20.2927 0-36.4922 16.3403-36.4922 36.6329 0 20.2929 14.2329 36.6328 36.3535 36.6328 18.1773 0 29.8775-9.4362 35.5098-24.9414h-20.5703c-2.394 5.2143-6.9045 8.4609-14.8008 8.4609-9.7149 0-16.0607-5.5009-18.0371-13.6758h54.541v-6.1992c0-20.2833-15.3667-36.9102-36.5039-36.9102zm-773.045 1.4024v42.9785c0 18.6046 9.44568 28.8867 25.6465 28.8867 8.17463 0 14.3724-3.6661 18.4551-9.5762v8.1661h19.1699v-70.4551h-19.3086v38.8965c0 11.4127-4.78693 16.4902-12.1172 16.4902-8.17463 0-12.2578-5.0765-12.2578-14.9394v-40.4473h-19.5879zm186.188 0v70.4551h19.3086v-33.2558c-0.00001-13.1016 4.51007-18.4551 14.791-18.4551h12.2559v-18.7442h-7.74805c-9.58502 0-15.9213 4.2225-19.4473 11.5528v-11.5528h-19.1602zm167.174 0v70.4551h19.3086v-70.4551h-19.3086zm419.824 15.6407c7.4695 0 13.6754 3.5264 16.3477 10.4297h-33.2539c3.0991-6.1984 9.1584-10.4297 16.9062-10.4297zm-80.6504 0.5625c10.7078 0 18.8828 8.0352 18.8828 18.8828 0 10.856-8.175 19.0215-18.8828 19.0215-10.4293 0-18.0371-8.5922-18.0371-19.0215s7.6078-18.8828 18.0371-18.8828zm-740.266 0c10.4294 0 18.0391 8.4535 18.0391 18.8828-0.00001 10.4297-7.6097 19.0215-18.0391 19.0215-10.7077 0-18.8828-8.1747-18.8828-19.0215 0-10.8471 8.17507-18.8828 18.8828-18.8828zm322.49 0c10.4294 0 18.0372 8.4535 18.0372 18.8828 0 10.4297-7.60774 19.0215-18.0372 19.0215-10.7078 0-18.8828-8.1747-18.8828-19.0215 0-10.8471 8.17507-18.8828 18.8828-18.8828zm144 0c10.4294 0 18.0372 8.4535 18.0372 18.8828 0 10.4297-7.6078 19.0215-18.0372 19.0215-10.7077 0-18.8828-8.1747-18.8828-19.0215 0-10.8471 8.1751-18.8828 18.8828-18.8828zm193.022 0.707c9.8634 0 17.7598 8.3139 17.7598 18.3165 0 10.0025-7.8964 18.3164-17.7598 18.3164-10.0025 0-17.6113-8.3139-17.6113-18.3164 0-10.0026 7.6088-18.3165 17.6113-18.3165z" fill="#1991d0"/>
</svg>
