<?xml version="1.0" encoding="UTF-8"?>
<!DOCTYPE svg PUBLIC "-//W3C//DTD SVG 1.1//EN" "http://www.w3.org/Graphics/SVG/1.1/DTD/svg11.dtd">
<svg xmlns="http://www.w3.org/2000/svg" version="1.1" width="1000px" height="629px" style="shape-rendering:geometricPrecision; text-rendering:geometricPrecision; image-rendering:optimizeQuality; fill-rule:evenodd; clip-rule:evenodd" xmlns:xlink="http://www.w3.org/1999/xlink">
<g><path style="opacity:0.255" fill="#f4e59d" d="M 618.5,33.5 C 618.5,33.8333 618.5,34.1667 618.5,34.5C 595.811,33.1307 573.145,33.4641 550.5,35.5C 549.5,35.5 548.5,35.5 547.5,35.5C 563.113,33.344 578.947,32.0107 595,31.5C 602.624,31.9837 610.458,32.6504 618.5,33.5 Z"/></g>
<g><path style="opacity:0.169" fill="#e5ddb1" d="M 618.5,34.5 C 618.5,34.1667 618.5,33.8333 618.5,33.5C 621.781,33.4203 624.781,34.087 627.5,35.5C 624.43,35.6323 621.43,35.299 618.5,34.5 Z"/></g>
<g><path style="opacity:1" fill="#fed407" d="M 618.5,34.5 C 621.43,35.299 624.43,35.6323 627.5,35.5C 634.086,37.6212 640.752,39.6212 647.5,41.5C 648.5,41.5 649.5,41.5 650.5,41.5C 653.915,44.4317 657.915,46.4317 662.5,47.5C 666.278,50.7674 670.611,53.1008 675.5,54.5C 676.663,56.9822 678.663,58.3155 681.5,58.5C 682.638,61.0862 684.638,62.7529 687.5,63.5C 688.877,67.2053 691.544,69.5387 695.5,70.5C 697.146,73.8102 699.48,76.4768 702.5,78.5C 703.906,78.9731 704.573,79.9731 704.5,81.5C 703.306,82.7773 701.64,83.4439 699.5,83.5C 688.519,82.6197 677.519,82.2864 666.5,82.5C 662.366,81.5151 658.032,81.1818 653.5,81.5C 632.686,80.0242 611.686,79.3576 590.5,79.5C 576.996,79.5001 563.662,79.8334 550.5,80.5C 511.623,81.3406 472.956,83.3406 434.5,86.5C 427.95,86.4541 421.617,87.1208 415.5,88.5C 389.744,90.0098 364.078,92.5098 338.5,96C 333.374,96.3604 328.707,97.527 324.5,99.5C 318.129,99.4882 311.796,99.9882 305.5,101C 300.503,101.432 295.837,102.599 291.5,104.5C 291.167,104.5 290.833,104.5 290.5,104.5C 282.919,105.236 275.419,106.569 268,108.5C 266.316,108.317 266.15,107.65 267.5,106.5C 279.09,103.641 290.09,99.6414 300.5,94.5C 300.833,94.5 301.167,94.5 301.5,94.5C 307.089,93.3566 312.422,91.69 317.5,89.5C 317.5,88.8333 317.833,88.5 318.5,88.5C 322.116,88.1007 325.45,87.1007 328.5,85.5C 335.222,84.257 341.556,82.257 347.5,79.5C 350.152,79.5905 352.485,78.9238 354.5,77.5C 356.199,77.6602 357.866,77.4935 359.5,77C 365.293,74.9767 370.959,72.81 376.5,70.5C 377.391,69.8902 378.391,69.5569 379.5,69.5C 381.527,69.6621 383.527,69.4955 385.5,69C 386.056,68.6174 386.389,68.1174 386.5,67.5C 393.353,67.2056 399.686,65.5389 405.5,62.5C 415.512,61.1535 425.179,58.8201 434.5,55.5C 447.414,53.4517 460.081,50.7851 472.5,47.5C 476.167,46.8333 479.833,46.1667 483.5,45.5C 488.157,44.8352 492.823,44.1686 497.5,43.5C 499.333,43.4146 500.666,42.7479 501.5,41.5C 502.167,41.5 502.833,41.5 503.5,41.5C 506.553,41.8893 509.22,41.2227 511.5,39.5C 516.562,39.7257 521.562,39.3924 526.5,38.5C 534.697,37.9716 542.697,36.9716 550.5,35.5C 573.145,33.4641 595.811,33.1307 618.5,34.5 Z"/></g>
<g><path style="opacity:0.7" fill="#fde878" d="M 547.5,35.5 C 548.5,35.5 549.5,35.5 550.5,35.5C 542.697,36.9716 534.697,37.9716 526.5,38.5C 526.5,38.1667 526.5,37.8333 526.5,37.5C 533.477,36.6357 540.477,35.969 547.5,35.5 Z"/></g>
<g><path style="opacity:0.455" fill="#f8e892" d="M 627.5,35.5 C 633.247,36.2162 638.914,37.3828 644.5,39C 645.942,39.3768 646.942,40.2101 647.5,41.5C 640.752,39.6212 634.086,37.6212 627.5,35.5 Z"/></g>
<g><path style="opacity:0.255" fill="#f1e5a3" d="M 526.5,37.5 C 526.5,37.8333 526.5,38.1667 526.5,38.5C 521.562,39.3924 516.562,39.7257 511.5,39.5C 516.32,38.5135 521.32,37.8468 526.5,37.5 Z"/></g>
<g><path style="opacity:0.255" fill="#e5ddb3" d="M 511.5,39.5 C 509.22,41.2227 506.553,41.8893 503.5,41.5C 505.905,40.2318 508.572,39.5651 511.5,39.5 Z"/></g>
<g><path style="opacity:0.455" fill="#fae785" d="M 501.5,41.5 C 500.666,42.7479 499.333,43.4146 497.5,43.5C 492.823,44.1686 488.157,44.8352 483.5,45.5C 483.5,45.1667 483.5,44.8333 483.5,44.5C 489.335,43.3052 495.335,42.3052 501.5,41.5 Z"/></g>
<g><path style="opacity:0.455" fill="#f2e294" d="M 650.5,41.5 C 655.128,42.5764 659.128,44.5764 662.5,47.5C 657.915,46.4317 653.915,44.4317 650.5,41.5 Z"/></g>
<g><path style="opacity:0.361" fill="#eae0aa" d="M 483.5,44.5 C 483.5,44.8333 483.5,45.1667 483.5,45.5C 479.833,46.1667 476.167,46.8333 472.5,47.5C 471.833,47.5 471.167,47.5 470.5,47.5C 474.515,45.6268 478.849,44.6268 483.5,44.5 Z"/></g>
<g><path style="opacity:0.71" fill="#f9e688" d="M 662.5,47.5 C 667.438,48.9072 671.771,51.2406 675.5,54.5C 670.611,53.1008 666.278,50.7674 662.5,47.5 Z"/></g>
<g><path style="opacity:0.361" fill="#f8e68b" d="M 470.5,47.5 C 471.167,47.5 471.833,47.5 472.5,47.5C 460.081,50.7851 447.414,53.4517 434.5,55.5C 446.097,51.455 458.097,48.7884 470.5,47.5 Z"/></g>
<g><path style="opacity:0.659" fill="#eee19b" d="M 675.5,54.5 C 677.882,55.3507 679.882,56.684 681.5,58.5C 678.663,58.3155 676.663,56.9822 675.5,54.5 Z"/></g>
<g><path style="opacity:0.761" fill="#f7e68d" d="M 434.5,55.5 C 425.179,58.8201 415.512,61.1535 405.5,62.5C 414.858,59.3477 424.525,57.0144 434.5,55.5 Z"/></g>
<g><path style="opacity:0.565" fill="#f6e58e" d="M 681.5,58.5 C 683.909,59.7007 685.909,61.3674 687.5,63.5C 684.638,62.7529 682.638,61.0862 681.5,58.5 Z"/></g>
<g><path style="opacity:0.659" fill="#f5e592" d="M 405.5,62.5 C 399.686,65.5389 393.353,67.2056 386.5,67.5C 392.704,65.6597 399.037,63.9931 405.5,62.5 Z"/></g>
<g><path style="opacity:0.761" fill="#f7e382" d="M 687.5,63.5 C 690.207,65.8432 692.874,68.1765 695.5,70.5C 691.544,69.5387 688.877,67.2053 687.5,63.5 Z"/></g>
<g><path style="opacity:0.565" fill="#f6e694" d="M 386.5,67.5 C 386.389,68.1174 386.056,68.6174 385.5,69C 383.527,69.4955 381.527,69.6621 379.5,69.5C 381.515,68.0762 383.848,67.4095 386.5,67.5 Z"/></g>
<g><path style="opacity:0.255" fill="#f0e29e" d="M 695.5,70.5 C 698.55,72.5491 700.883,75.2157 702.5,78.5C 699.48,76.4768 697.146,73.8102 695.5,70.5 Z"/></g>
<g><path style="opacity:0.361" fill="#f7e693" d="M 376.5,70.5 C 370.959,72.81 365.293,74.9767 359.5,77C 357.866,77.4935 356.199,77.6602 354.5,77.5C 361.393,74.2671 368.727,71.9338 376.5,70.5 Z"/></g>
<g><path style="opacity:0.455" fill="#fae887" d="M 354.5,77.5 C 352.485,78.9238 350.152,79.5905 347.5,79.5C 349.515,78.0762 351.848,77.4095 354.5,77.5 Z"/></g>
<g><path style="opacity:0.816" fill="#fde24e" d="M 550.5,80.5 C 563.662,79.8334 576.996,79.5001 590.5,79.5C 611.686,79.3576 632.686,80.0242 653.5,81.5C 648.167,81.5 642.833,81.5 637.5,81.5C 633.833,81.5 630.167,81.5 626.5,81.5C 601.339,80.5023 576.005,80.1689 550.5,80.5 Z"/></g>
<g><path style="opacity:0.255" fill="#e7deb0" d="M 637.5,81.5 C 642.833,81.5 648.167,81.5 653.5,81.5C 658.032,81.1818 662.366,81.5151 666.5,82.5C 666.5,82.8333 666.5,83.1667 666.5,83.5C 656.87,83.3054 647.203,82.6387 637.5,81.5 Z"/></g>
<g><path style="opacity:0.255" fill="#ece0a1" d="M 550.5,80.5 C 576.005,80.1689 601.339,80.5023 626.5,81.5C 597.831,81.3334 569.165,81.5 540.5,82C 505.128,83.3495 469.795,85.1828 434.5,87.5C 434.5,87.1667 434.5,86.8333 434.5,86.5C 472.956,83.3406 511.623,81.3406 550.5,80.5 Z"/></g>
<g><path style="opacity:0.659" fill="#f7e68e" d="M 347.5,79.5 C 341.556,82.257 335.222,84.257 328.5,85.5C 334.504,82.6762 340.837,80.6762 347.5,79.5 Z"/></g>
<g><path style="opacity:0.361" fill="#f0e3a1" d="M 704.5,81.5 C 706.273,82.3143 706.773,83.6476 706,85.5C 692.563,84.2176 679.396,83.5509 666.5,83.5C 666.5,83.1667 666.5,82.8333 666.5,82.5C 677.519,82.2864 688.519,82.6197 699.5,83.5C 701.64,83.4439 703.306,82.7773 704.5,81.5 Z"/></g>
<g><path style="opacity:0.255" fill="#f1e4a7" d="M 328.5,85.5 C 325.45,87.1007 322.116,88.1007 318.5,88.5C 321.381,86.32 324.714,85.32 328.5,85.5 Z"/></g>
<g><path style="opacity:0.255" fill="#eee1a2" d="M 434.5,86.5 C 434.5,86.8333 434.5,87.1667 434.5,87.5C 428.465,88.6171 422.132,89.2837 415.5,89.5C 415.5,89.1667 415.5,88.8333 415.5,88.5C 421.617,87.1208 427.95,86.4541 434.5,86.5 Z"/></g>
<g><path style="opacity:0.361" fill="#f5e595" d="M 415.5,88.5 C 415.5,88.8333 415.5,89.1667 415.5,89.5C 386.88,91.6701 357.88,94.8368 328.5,99C 327.122,100.334 325.789,100.501 324.5,99.5C 328.707,97.527 333.374,96.3604 338.5,96C 364.078,92.5098 389.744,90.0098 415.5,88.5 Z"/></g>
<g><path style="opacity:0.455" fill="#f5e592" d="M 317.5,89.5 C 312.422,91.69 307.089,93.3566 301.5,94.5C 306.211,91.314 311.544,89.6473 317.5,89.5 Z"/></g>
<g><path style="opacity:0.659" fill="#f1e39b" d="M 710.5,99.5 C 708.5,99.5 706.5,99.5 704.5,99.5C 654.501,98.1984 604.501,98.1984 554.5,99.5C 606.319,95.5235 658.319,95.5235 710.5,99.5 Z"/></g>
<g><path style="opacity:1" fill="#fed403" d="M 704.5,99.5 C 707.977,100.323 711.644,100.823 715.5,101C 717.323,101.997 718.99,103.164 720.5,104.5C 720.343,105.873 720.51,107.207 721,108.5C 722.641,110.84 724.141,113.173 725.5,115.5C 726.009,120.703 727.676,125.37 730.5,129.5C 730.297,135.83 731.297,141.83 733.5,147.5C 734.468,149.607 734.802,151.941 734.5,154.5C 734.5,162.167 734.5,169.833 734.5,177.5C 734.5,178.5 734.5,179.5 734.5,180.5C 732.283,190.097 729.949,199.763 727.5,209.5C 724.389,214.304 722.389,219.637 721.5,225.5C 721.167,225.5 720.833,225.5 720.5,225.5C 716.208,231.606 712.208,237.939 708.5,244.5C 708.039,247.303 706.705,249.637 704.5,251.5C 702.599,251.433 700.766,251.767 699,252.5C 687.954,249.791 676.788,247.791 665.5,246.5C 664.883,246.611 664.383,246.944 664,247.5C 661.026,245.937 657.859,244.937 654.5,244.5C 654.082,243.778 653.416,243.278 652.5,243C 645.167,241.722 637.833,240.555 630.5,239.5C 630.167,239.5 629.833,239.5 629.5,239.5C 624.203,237.126 618.537,236.126 612.5,236.5C 609.124,234.918 605.458,234.251 601.5,234.5C 597.443,232.78 593.11,231.614 588.5,231C 578.806,229.781 569.139,228.614 559.5,227.5C 536.392,222.225 512.726,218.559 488.5,216.5C 486.265,216.795 484.265,216.461 482.5,215.5C 473.419,213.386 464.086,212.053 454.5,211.5C 450.833,211.5 447.167,211.5 443.5,211.5C 438.523,210.673 433.523,210.006 428.5,209.5C 428.082,208.778 427.416,208.278 426.5,208C 418.161,207.071 409.828,206.238 401.5,205.5C 396.482,205.387 391.482,205.053 386.5,204.5C 381.146,204.431 375.813,204.098 370.5,203.5C 369.666,202.252 368.333,201.585 366.5,201.5C 361.193,200.724 355.86,200.391 350.5,200.5C 345.339,199.062 340.006,197.896 334.5,197C 328.651,196.182 322.985,196.348 317.5,197.5C 272.331,192.959 226.997,189.959 181.5,188.5C 184.415,186.508 187.415,184.508 190.5,182.5C 196.013,182.067 200.68,180.067 204.5,176.5C 205.5,176.5 206.5,176.5 207.5,176.5C 209.967,176.245 211.967,175.245 213.5,173.5C 215.199,173.66 216.866,173.494 218.5,173C 224.642,170.684 230.642,168.184 236.5,165.5C 236.842,164.662 237.508,164.328 238.5,164.5C 245.906,162.648 253.239,160.481 260.5,158C 261.056,157.617 261.389,157.117 261.5,156.5C 268.052,155.872 274.052,153.872 279.5,150.5C 283.416,150.975 286.749,149.975 289.5,147.5C 290.609,147.443 291.609,147.11 292.5,146.5C 295.152,146.59 297.485,145.924 299.5,144.5C 302.781,144.58 305.781,143.913 308.5,142.5C 308.842,141.662 309.508,141.328 310.5,141.5C 343.094,133.183 375.761,125.516 408.5,118.5C 408.833,118.5 409.167,118.5 409.5,118.5C 437.154,113.39 464.821,109.057 492.5,105.5C 507.484,104.202 522.484,103.035 537.5,102C 538.737,101.768 539.737,101.268 540.5,100.5C 542.167,100.5 543.833,100.5 545.5,100.5C 548.713,100.81 551.713,100.477 554.5,99.5C 604.501,98.1984 654.501,98.1984 704.5,99.5 Z"/></g>
<g><path style="opacity:0.361" fill="#eae0ad" d="M 554.5,99.5 C 551.713,100.477 548.713,100.81 545.5,100.5C 548.73,98.8865 551.73,98.5532 554.5,99.5 Z"/></g>
<g><path style="opacity:0.761" fill="#fbe989" d="M 704.5,99.5 C 706.5,99.5 708.5,99.5 710.5,99.5C 715.314,98.5729 718.648,100.24 720.5,104.5C 718.99,103.164 717.323,101.997 715.5,101C 711.644,100.823 707.977,100.323 704.5,99.5 Z"/></g>
<g><path style="opacity:0.679" fill="#f5e593" d="M 324.5,99.5 C 313.673,101.429 302.673,103.095 291.5,104.5C 295.837,102.599 300.503,101.432 305.5,101C 311.796,99.9882 318.129,99.4882 324.5,99.5 Z"/></g>
<g><path style="opacity:0.255" fill="#f3e497" d="M 300.5,94.5 C 290.09,99.6414 279.09,103.641 267.5,106.5C 268.058,105.21 269.058,104.377 270.5,104C 280.374,100.672 290.374,97.5056 300.5,94.5 Z"/></g>
<g><path style="opacity:0.255" fill="#f3e59b" d="M 540.5,100.5 C 539.737,101.268 538.737,101.768 537.5,102C 522.484,103.035 507.484,104.202 492.5,105.5C 491.167,105.5 489.833,105.5 488.5,105.5C 505.621,103.129 522.954,101.462 540.5,100.5 Z"/></g>
<g><path style="opacity:0.255" fill="#f1e4a4" d="M 290.5,104.5 C 289.48,105.954 288.313,106.287 287,105.5C 280.423,107.082 273.756,108.415 267,109.5C 261.047,108.384 261.213,107.384 267.5,106.5C 266.15,107.65 266.316,108.317 268,108.5C 275.419,106.569 282.919,105.236 290.5,104.5 Z"/></g>
<g><path style="opacity:0.816" fill="#f6e38a" d="M 720.5,104.5 C 721.208,106.378 722.374,108.045 724,109.5C 724.505,111.518 725.005,113.518 725.5,115.5C 724.141,113.173 722.641,110.84 721,108.5C 720.51,107.207 720.343,105.873 720.5,104.5 Z"/></g>
<g><path style="opacity:0.455" fill="#f6e690" d="M 488.5,105.5 C 489.833,105.5 491.167,105.5 492.5,105.5C 464.821,109.057 437.154,113.39 409.5,118.5C 411.498,117.852 413.498,117.019 415.5,116C 427.264,114.463 438.931,112.463 450.5,110C 463.232,108.821 475.899,107.321 488.5,105.5 Z"/></g>
<g><path style="opacity:0.455" fill="#f7e690" d="M 725.5,115.5 C 727.697,119.911 729.364,124.578 730.5,129.5C 727.676,125.37 726.009,120.703 725.5,115.5 Z"/></g>
<g><path style="opacity:0.361" fill="#f6e692" d="M 408.5,118.5 C 375.761,125.516 343.094,133.183 310.5,141.5C 342.486,131.543 375.153,123.876 408.5,118.5 Z"/></g>
<g><path style="opacity:0.565" fill="#f9e680" d="M 730.5,129.5 C 732.505,135.209 733.505,141.209 733.5,147.5C 731.297,141.83 730.297,135.83 730.5,129.5 Z"/></g>
<g><path style="opacity:0.565" fill="#fae98c" d="M 308.5,142.5 C 305.781,143.913 302.781,144.58 299.5,144.5C 302.219,143.087 305.219,142.42 308.5,142.5 Z"/></g>
<g><path style="opacity:0.361" fill="#f1e5a4" d="M 299.5,144.5 C 297.485,145.924 295.152,146.59 292.5,146.5C 294.515,145.076 296.848,144.41 299.5,144.5 Z"/></g>
<g><path style="opacity:0.693" fill="#f8e689" d="M 289.5,147.5 C 286.749,149.975 283.416,150.975 279.5,150.5C 282.619,149.13 285.952,148.13 289.5,147.5 Z"/></g>
<g><path style="opacity:0.71" fill="#f7e68d" d="M 279.5,150.5 C 274.052,153.872 268.052,155.872 261.5,156.5C 267.315,154.206 273.315,152.206 279.5,150.5 Z"/></g>
<g><path style="opacity:0.761" fill="#f5e591" d="M 261.5,156.5 C 261.389,157.117 261.056,157.617 260.5,158C 253.239,160.481 245.906,162.648 238.5,164.5C 244.389,162.011 250.389,159.511 256.5,157C 258.134,156.506 259.801,156.34 261.5,156.5 Z"/></g>
<g><path style="opacity:0.255" fill="#e0dab8" d="M 734.5,154.5 C 735.23,158.031 735.896,161.697 736.5,165.5C 735.891,169.635 735.224,173.635 734.5,177.5C 734.5,169.833 734.5,162.167 734.5,154.5 Z"/></g>
<g><path style="opacity:0.565" fill="#fae787" d="M 236.5,165.5 C 230.642,168.184 224.642,170.684 218.5,173C 216.866,173.494 215.199,173.66 213.5,173.5C 220.71,169.773 228.377,167.107 236.5,165.5 Z"/></g>
<g><path style="opacity:0.659" fill="#f9e78d" d="M 213.5,173.5 C 211.967,175.245 209.967,176.245 207.5,176.5C 208.687,174.025 210.687,173.025 213.5,173.5 Z"/></g>
<g><path style="opacity:0.894" fill="#f7e68f" d="M 204.5,176.5 C 200.68,180.067 196.013,182.067 190.5,182.5C 195.008,180.324 199.675,178.324 204.5,176.5 Z"/></g>
<g><path style="opacity:0.455" fill="#f8e78e" d="M 190.5,182.5 C 187.415,184.508 184.415,186.508 181.5,188.5C 180.596,187.791 180.263,186.791 180.5,185.5C 183.823,184.508 187.156,183.508 190.5,182.5 Z"/></g>
<g><path style="opacity:0.455" fill="#f5e591" d="M 181.5,188.5 C 226.997,189.959 272.331,192.959 317.5,197.5C 318.167,197.5 318.5,197.833 318.5,198.5C 289.459,196.75 259.959,194.416 230,191.5C 221.094,190.751 212.094,190.751 203,191.5C 195.807,190.016 188.64,189.016 181.5,188.5 Z"/></g>
<g><path style="opacity:1" fill="#fbdd4c" d="M 317.5,197.5 C 322.985,196.348 328.651,196.182 334.5,197C 340.006,197.896 345.339,199.062 350.5,200.5C 343.201,199.65 335.868,199.317 328.5,199.5C 325.193,198.949 321.86,198.616 318.5,198.5C 318.5,197.833 318.167,197.5 317.5,197.5 Z"/></g>
<g><path style="opacity:0.361" fill="#f8e78f" d="M 734.5,180.5 C 733.788,187.563 732.621,194.563 731,201.5C 730.422,204.53 729.255,207.197 727.5,209.5C 729.949,199.763 732.283,190.097 734.5,180.5 Z"/></g>
<g><path style="opacity:0.255" fill="#f3e59b" d="M 328.5,199.5 C 335.868,199.317 343.201,199.65 350.5,200.5C 355.86,200.391 361.193,200.724 366.5,201.5C 368.333,201.585 369.666,202.252 370.5,203.5C 356.359,202.21 342.359,200.876 328.5,199.5 Z"/></g>
<g><path style="opacity:0.078" fill="#d4d3c1" d="M 386.5,204.5 C 391.482,205.053 396.482,205.387 401.5,205.5C 401.5,205.833 401.5,206.167 401.5,206.5C 397.486,206.666 393.486,206.499 389.5,206C 388.263,205.768 387.263,205.268 386.5,204.5 Z"/></g>
<g><path style="opacity:0.361" fill="#f9e895" d="M 401.5,206.5 C 401.5,206.167 401.5,205.833 401.5,205.5C 409.828,206.238 418.161,207.071 426.5,208C 427.416,208.278 428.082,208.778 428.5,209.5C 422.811,209.081 417.144,208.414 411.5,207.5C 408.13,208.444 404.797,208.111 401.5,206.5 Z"/></g>
<g><path style="opacity:0.169" fill="#e5ddb2" d="M 443.5,211.5 C 447.167,211.5 450.833,211.5 454.5,211.5C 455.5,212.167 456.5,212.833 457.5,213.5C 452.662,213.089 447.995,212.422 443.5,211.5 Z"/></g>
<g><path style="opacity:0.71" fill="#fae785" d="M 454.5,211.5 C 464.086,212.053 473.419,213.386 482.5,215.5C 474.117,215.397 465.784,214.731 457.5,213.5C 456.5,212.833 455.5,212.167 454.5,211.5 Z"/></g>
<g><path style="opacity:0.361" fill="#f6e694" d="M 488.5,216.5 C 512.726,218.559 536.392,222.225 559.5,227.5C 544.583,225.764 529.75,223.431 515,220.5C 513.893,220.585 512.893,220.919 512,221.5C 504.02,220.162 496.187,218.496 488.5,216.5 Z"/></g>
<g><path style="opacity:0.565" fill="#f2e39a" d="M 727.5,209.5 C 726.093,215.186 724.093,220.519 721.5,225.5C 722.389,219.637 724.389,214.304 727.5,209.5 Z"/></g>
<g><path style="opacity:0.255" fill="#f8e78f" d="M 559.5,227.5 C 569.139,228.614 578.806,229.781 588.5,231C 593.11,231.614 597.443,232.78 601.5,234.5C 587.266,232.572 573.266,230.239 559.5,227.5 Z"/></g>
<g><path style="opacity:0.169" fill="#ede2a9" d="M 601.5,234.5 C 605.458,234.251 609.124,234.918 612.5,236.5C 608.613,236.354 604.946,235.687 601.5,234.5 Z"/></g>
<g><path style="opacity:0.565" fill="#f9e88c" d="M 612.5,236.5 C 618.537,236.126 624.203,237.126 629.5,239.5C 623.6,239.117 617.933,238.117 612.5,236.5 Z"/></g>
<g><path style="opacity:0.169" fill="#f7e68e" d="M 720.5,225.5 C 719.908,228.691 718.741,231.691 717,234.5C 714.842,238.534 712.008,241.868 708.5,244.5C 712.208,237.939 716.208,231.606 720.5,225.5 Z"/></g>
<g><path style="opacity:0.361" fill="#f2e39b" d="M 630.5,239.5 C 637.833,240.555 645.167,241.722 652.5,243C 653.416,243.278 654.082,243.778 654.5,244.5C 648.873,243.475 643.207,242.642 637.5,242C 634.896,241.61 632.562,240.776 630.5,239.5 Z"/></g>
<g><path style="opacity:0.659" fill="#fae67b" d="M 501.5,247.5 C 501.5,247.833 501.5,248.167 501.5,248.5C 456.942,247.463 412.275,248.13 367.5,250.5C 369.5,249.833 371.5,249.167 373.5,248.5C 416.065,247.027 458.731,246.694 501.5,247.5 Z"/></g>
<g><path style="opacity:0.169" fill="#f7e690" d="M 665.5,246.5 C 676.788,247.791 687.954,249.791 699,252.5C 700.766,251.767 702.599,251.433 704.5,251.5C 703.683,253.478 702.183,254.478 700,254.5C 688.384,251.747 676.884,249.081 665.5,246.5 Z"/></g>
<g><path style="opacity:0.455" fill="#f7e793" d="M 373.5,248.5 C 371.5,249.167 369.5,249.833 367.5,250.5C 357.821,250.712 348.155,251.212 338.5,252C 341.628,252.841 344.628,253.675 347.5,254.5C 344.121,254.322 340.955,254.322 338,254.5C 337.51,253.207 337.343,251.873 337.5,250.5C 349.488,249.754 361.488,249.087 373.5,248.5 Z"/></g>
<g><path style="opacity:1" fill="#fed408" d="M 501.5,248.5 C 533.874,249.502 566.207,251.169 598.5,253.5C 621.758,256.038 645.091,259.038 668.5,262.5C 673.503,264.736 678.837,266.236 684.5,267C 685.171,267.986 685.171,269.153 684.5,270.5C 684.158,271.338 683.492,271.672 682.5,271.5C 677.813,273.174 673.813,275.841 670.5,279.5C 670.158,280.338 669.492,280.672 668.5,280.5C 666.336,280.721 664.67,281.721 663.5,283.5C 661.574,285.293 659.241,286.293 656.5,286.5C 650.921,287.961 645.587,289.961 640.5,292.5C 639.833,292.5 639.5,292.833 639.5,293.5C 630.914,294.428 622.58,296.094 614.5,298.5C 613.5,298.5 612.5,298.5 611.5,298.5C 600.509,299.066 589.509,299.4 578.5,299.5C 578.5,299.167 578.5,298.833 578.5,298.5C 571.036,296.983 563.37,295.983 555.5,295.5C 552.084,293.976 548.417,292.976 544.5,292.5C 543.167,292.5 541.833,292.5 540.5,292.5C 539.77,290.955 538.437,290.122 536.5,290C 531.257,288.522 525.924,287.688 520.5,287.5C 520.5,287.167 520.5,286.833 520.5,286.5C 511.399,283.878 502.066,281.878 492.5,280.5C 492.389,279.883 492.056,279.383 491.5,279C 485.215,277.73 478.882,276.897 472.5,276.5C 469.908,274.823 466.908,273.657 463.5,273C 455.187,271.614 446.854,270.448 438.5,269.5C 436.139,269.326 433.806,268.993 431.5,268.5C 431.389,267.883 431.056,267.383 430.5,267C 422.539,265.506 414.539,264.34 406.5,263.5C 405.833,263.5 405.167,263.5 404.5,263.5C 392.036,260.682 379.37,258.182 366.5,256C 360.194,255.103 353.861,254.603 347.5,254.5C 344.628,253.675 341.628,252.841 338.5,252C 348.155,251.212 357.821,250.712 367.5,250.5C 412.275,248.13 456.942,247.463 501.5,248.5 Z"/></g>
<g><path style="opacity:0.255" fill="#f6e798" d="M 501.5,248.5 C 501.5,248.167 501.5,247.833 501.5,247.5C 529.302,248.31 556.969,249.476 584.5,251C 589.434,251.116 594.1,251.949 598.5,253.5C 566.207,251.169 533.874,249.502 501.5,248.5 Z"/></g>
<g><path style="opacity:0.455" fill="#f5e491" d="M 598.5,253.5 C 622.3,254.142 645.633,257.142 668.5,262.5C 645.091,259.038 621.758,256.038 598.5,253.5 Z"/></g>
<g><path style="opacity:0.255" fill="#f5e593" d="M 347.5,254.5 C 353.861,254.603 360.194,255.103 366.5,256C 379.37,258.182 392.036,260.682 404.5,263.5C 385.236,261.321 366.236,258.321 347.5,254.5 Z"/></g>
<g><path style="opacity:0.894" fill="#f6e58e" d="M 668.5,262.5 C 674.116,263.44 679.783,264.606 685.5,266C 688.038,267.914 687.705,269.414 684.5,270.5C 685.171,269.153 685.171,267.986 684.5,267C 678.837,266.236 673.503,264.736 668.5,262.5 Z"/></g>
<g><path style="opacity:0.565" fill="#f3e598" d="M 406.5,263.5 C 414.539,264.34 422.539,265.506 430.5,267C 431.056,267.383 431.389,267.883 431.5,268.5C 422.896,267.57 414.563,265.903 406.5,263.5 Z"/></g>
<g><path style="opacity:0.169" fill="#f4e495" d="M 438.5,269.5 C 446.854,270.448 455.187,271.614 463.5,273C 466.908,273.657 469.908,274.823 472.5,276.5C 468.516,276.568 464.849,275.735 461.5,274C 453.24,273.303 445.573,271.803 438.5,269.5 Z"/></g>
<g><path style="opacity:0.255" fill="#f7e797" d="M 472.5,276.5 C 478.882,276.897 485.215,277.73 491.5,279C 492.056,279.383 492.389,279.883 492.5,280.5C 485.588,279.784 478.921,278.451 472.5,276.5 Z"/></g>
<g><path style="opacity:0.169" fill="#f8e68e" d="M 682.5,271.5 C 679.363,275.369 675.363,278.035 670.5,279.5C 673.813,275.841 677.813,273.174 682.5,271.5 Z"/></g>
<g><path style="opacity:0.761" fill="#f5e48e" d="M 668.5,280.5 C 667.599,282.727 665.933,283.727 663.5,283.5C 664.67,281.721 666.336,280.721 668.5,280.5 Z"/></g>
<g><path style="opacity:0.361" fill="#f6e692" d="M 492.5,280.5 C 502.066,281.878 511.399,283.878 520.5,286.5C 510.846,285.492 501.512,283.492 492.5,280.5 Z"/></g>
<g><path style="opacity:0.169" fill="#f4e59c" d="M 520.5,287.5 C 525.924,287.688 531.257,288.522 536.5,290C 538.437,290.122 539.77,290.955 540.5,292.5C 533.744,290.82 527.078,289.153 520.5,287.5 Z"/></g>
<g><path style="opacity:0.455" fill="#f3e393" d="M 656.5,286.5 C 656.53,287.497 656.03,288.164 655,288.5C 650.214,290.379 645.38,291.712 640.5,292.5C 645.587,289.961 650.921,287.961 656.5,286.5 Z"/></g>
<g><path style="opacity:0.169" fill="#f1e4a5" d="M 544.5,292.5 C 548.417,292.976 552.084,293.976 555.5,295.5C 552.126,295.326 548.793,294.826 545.5,294C 544.944,293.617 544.611,293.117 544.5,292.5 Z"/></g>
<g><path style="opacity:0.565" fill="#fbe886" d="M 555.5,295.5 C 563.37,295.983 571.036,296.983 578.5,298.5C 570.739,298.888 563.072,297.888 555.5,295.5 Z"/></g>
<g><path style="opacity:0.255" fill="#f5e698" d="M 639.5,293.5 C 631.513,296.297 623.18,297.964 614.5,298.5C 622.58,296.094 630.914,294.428 639.5,293.5 Z"/></g>
<g><path style="opacity:0.455" fill="#e1dab0" d="M 611.5,298.5 C 610.003,299.306 608.336,299.972 606.5,300.5C 597.72,300.581 588.387,300.247 578.5,299.5C 589.509,299.4 600.509,299.066 611.5,298.5 Z"/></g>
<g><path style="opacity:0.427" fill="#909fc7" d="M 884.5,364.5 C 891.508,364.334 898.508,364.5 905.5,365C 906.833,366 906.833,367 905.5,368C 902.905,368.226 900.405,368.726 898,369.5C 897.667,377.167 897.333,384.833 897,392.5C 895.062,393.86 893.396,393.527 892,391.5C 891.5,383.841 891.334,376.174 891.5,368.5C 888.833,368.5 886.167,368.5 883.5,368.5C 883.433,367.041 883.766,365.708 884.5,364.5 Z"/></g>
<g><path style="opacity:1" fill="#1b378d" d="M 885.5,365.5 C 891.868,365.17 898.202,365.504 904.5,366.5C 901.914,367.48 899.247,367.813 896.5,367.5C 896.5,375.5 896.5,383.5 896.5,391.5C 895.5,391.5 894.5,391.5 893.5,391.5C 893.5,383.5 893.5,375.5 893.5,367.5C 890.302,368.036 887.635,367.369 885.5,365.5 Z"/></g>
<g><path style="opacity:0.514" fill="#97a3c6" d="M 916.5,368.5 C 914.988,366.683 912.988,365.683 910.5,365.5C 910.5,374.167 910.5,382.833 910.5,391.5C 911.5,391.5 912.5,391.5 913.5,391.5C 913.5,385.5 913.5,379.5 913.5,373.5C 916.702,373.537 918.368,375.203 918.5,378.5C 916.827,377.657 915.66,376.324 915,374.5C 914.667,380.5 914.333,386.5 914,392.5C 911.978,393.991 910.312,393.658 909,391.5C 908.333,382.833 908.333,374.167 909,365.5C 912.72,363.604 915.22,364.604 916.5,368.5 Z"/></g>
<g><path style="opacity:1" fill="#203891" d="M 916.5,368.5 C 916.845,371.198 918.178,373.198 920.5,374.5C 921.338,374.842 921.672,375.508 921.5,376.5C 922.947,377.885 923.947,377.552 924.5,375.5C 926.796,374.267 928.13,372.267 928.5,369.5C 928.5,368.833 928.833,368.5 929.5,368.5C 931.053,366.615 933.053,365.615 935.5,365.5C 935.5,374.167 935.5,382.833 935.5,391.5C 934.5,391.5 933.5,391.5 932.5,391.5C 932.5,385.167 932.5,378.833 932.5,372.5C 931.325,372.281 930.325,372.614 929.5,373.5C 927.656,377.689 924.656,380.355 920.5,381.5C 920.715,379.821 920.048,378.821 918.5,378.5C 918.368,375.203 916.702,373.537 913.5,373.5C 913.5,379.5 913.5,385.5 913.5,391.5C 912.5,391.5 911.5,391.5 910.5,391.5C 910.5,382.833 910.5,374.167 910.5,365.5C 912.988,365.683 914.988,366.683 916.5,368.5 Z"/></g>
<g><path style="opacity:0.427" fill="#a1adcd" d="M 916.5,368.5 C 918.326,370.147 919.66,372.147 920.5,374.5C 918.178,373.198 916.845,371.198 916.5,368.5 Z"/></g>
<g><path style="opacity:0.627" fill="#8997c3" d="M 928.5,369.5 C 928.13,372.267 926.796,374.267 924.5,375.5C 925.34,373.147 926.674,371.147 928.5,369.5 Z"/></g>
<g><path style="opacity:0.741" fill="#a6b0ca" d="M 924.5,375.5 C 923.947,377.552 922.947,377.885 921.5,376.5C 922.609,376.443 923.609,376.11 924.5,375.5 Z"/></g>
<g><path style="opacity:0.325" fill="#98a4c8" d="M 918.5,378.5 C 920.048,378.821 920.715,379.821 920.5,381.5C 924.656,380.355 927.656,377.689 929.5,373.5C 930.325,372.614 931.325,372.281 932.5,372.5C 932.5,378.833 932.5,385.167 932.5,391.5C 933.5,391.5 934.5,391.5 935.5,391.5C 935.5,382.833 935.5,374.167 935.5,365.5C 933.053,365.615 931.053,366.615 929.5,368.5C 930.742,364.608 933.242,363.608 937,365.5C 937.667,374.167 937.667,382.833 937,391.5C 935.556,393.155 933.722,393.822 931.5,393.5C 931.666,387.158 931.5,380.825 931,374.5C 928.833,377.333 926.667,380.167 924.5,383C 920.687,384.028 918.687,382.528 918.5,378.5 Z"/></g>
<g><path style="opacity:0.325" fill="#9daacc" d="M 880.5,405.5 C 876.65,400.323 871.65,396.657 865.5,394.5C 861.609,392.993 857.442,392.326 853,392.5C 848.242,392.366 843.742,393.032 839.5,394.5C 838.5,394.5 837.5,394.5 836.5,394.5C 849.385,389.018 862.052,389.851 874.5,397C 877.381,399.279 879.381,402.112 880.5,405.5 Z"/></g>
<g><path style="opacity:1" fill="#03278a" d="M 304.5,394.5 C 309.761,395.23 314.761,396.73 319.5,399C 315.803,407.55 313.136,416.384 311.5,425.5C 308.848,425.59 306.515,424.924 304.5,423.5C 296.221,419.47 287.554,418.137 278.5,419.5C 274.737,419.857 271.07,420.69 267.5,422C 266.252,423.4 265.252,424.9 264.5,426.5C 260.951,427.957 259.784,430.623 261,434.5C 261.383,435.056 261.883,435.389 262.5,435.5C 263.432,438.433 265.432,440.433 268.5,441.5C 274.953,445.517 281.62,449.35 288.5,453C 293.17,456.864 297.503,461.031 301.5,465.5C 304.434,475.753 303.768,485.753 299.5,495.5C 291.084,509.224 279.084,518.391 263.5,523C 244.924,527.004 226.258,527.504 207.5,524.5C 204.289,522.16 200.622,520.826 196.5,520.5C 195.185,519.333 194.519,517.833 194.5,516C 197.034,507.137 199.368,498.304 201.5,489.5C 210.113,492.318 218.779,494.818 227.5,497C 237.016,499.391 246.35,498.891 255.5,495.5C 256.757,493.321 258.257,491.321 260,489.5C 261.61,484.355 260.11,480.688 255.5,478.5C 254.738,476.738 253.404,475.738 251.5,475.5C 250.393,473.031 248.393,472.031 245.5,472.5C 244.713,470.896 243.38,470.229 241.5,470.5C 240.952,467.916 239.285,466.916 236.5,467.5C 234.122,465.122 231.455,463.122 228.5,461.5C 225.415,457.754 222.749,453.754 220.5,449.5C 219.593,443.894 219.26,438.227 219.5,432.5C 220.475,429.933 221.142,427.267 221.5,424.5C 222.674,423.486 223.34,422.153 223.5,420.5C 229.877,413.456 236.877,407.122 244.5,401.5C 244.842,400.662 245.508,400.328 246.5,400.5C 252.622,398.053 258.955,396.386 265.5,395.5C 278.928,393.623 291.928,393.29 304.5,394.5 Z"/></g>
<g><path style="opacity:0.984" fill="#334d9b" d="M 723.5,393.5 C 723.5,393.833 723.5,394.167 723.5,394.5C 713.833,393.167 704.167,393.167 694.5,394.5C 698.56,392.983 702.893,392.316 707.5,392.5C 712.844,392.76 718.177,393.093 723.5,393.5 Z"/></g>
<g><path style="opacity:0.992" fill="#2e4999" d="M 865.5,394.5 C 857.109,393.258 848.442,393.258 839.5,394.5C 843.742,393.032 848.242,392.366 853,392.5C 857.442,392.326 861.609,392.993 865.5,394.5 Z"/></g>
<g><path style="opacity:0.741" fill="#7588bd" d="M 134.5,398.5 C 134.5,397.5 134.5,396.5 134.5,395.5C 121.989,395.171 109.655,395.505 97.5,396.5C 97.5,397.167 97.5,397.833 97.5,398.5C 96.7281,399.694 95.7281,400.694 94.5,401.5C 94.9612,399.45 95.6279,397.45 96.5,395.5C 109.487,394.334 122.487,394.167 135.5,395C 136.985,396.756 136.652,397.923 134.5,398.5 Z"/></g>
<g><path style="opacity:1" fill="#03278a" d="M 447.5,394.5 C 462.906,397.689 473.906,406.356 480.5,420.5C 481.167,420.5 481.5,420.833 481.5,421.5C 483.908,432.457 484.074,443.457 482,454.5C 479.38,461.531 476.88,468.531 474.5,475.5C 470.417,478.944 467.417,483.277 465.5,488.5C 464.675,489.386 463.675,489.719 462.5,489.5C 462.649,490.552 462.483,491.552 462,492.5C 457.564,496.428 453.731,500.761 450.5,505.5C 444.387,509.062 438.387,512.896 432.5,517C 417.308,524.068 401.308,527.068 384.5,526C 377.771,525.218 371.438,523.384 365.5,520.5C 365.027,519.094 364.027,518.427 362.5,518.5C 358.836,514.668 355.336,510.668 352,506.5C 350.151,502.497 348.651,498.497 347.5,494.5C 346.332,484.173 346.332,473.84 347.5,463.5C 349.027,459.733 350.027,455.733 350.5,451.5C 351.794,450.71 352.961,449.71 354,448.5C 357.412,440.084 362.079,432.417 368,425.5C 374.873,418.004 382.373,411.337 390.5,405.5C 392.027,405.573 393.027,404.906 393.5,403.5C 395.38,403.771 396.713,403.104 397.5,401.5C 404.794,398.182 412.461,395.848 420.5,394.5C 429.504,393.249 438.504,393.249 447.5,394.5 Z M 420.5,422.5 C 436.986,421.921 443.819,430.588 441,448.5C 437.512,463.225 431.345,476.558 422.5,488.5C 419.467,490.016 416.8,492.016 414.5,494.5C 406.997,497.423 399.664,497.09 392.5,493.5C 389.642,488.591 387.976,483.257 387.5,477.5C 388.61,467.058 391.277,457.058 395.5,447.5C 399.66,440.526 404.327,433.859 409.5,427.5C 413.354,426.07 417.021,424.403 420.5,422.5 Z"/></g>
<g><path style="opacity:1" fill="#03288a" d="M 595.5,394.5 C 598.908,395.367 602.242,396.533 605.5,398C 608.729,401.399 612.062,404.565 615.5,407.5C 616.979,411.942 618.646,416.275 620.5,420.5C 620.688,432.559 620.021,444.559 618.5,456.5C 617.655,457.671 616.989,459.005 616.5,460.5C 614.598,465.331 612.931,470.331 611.5,475.5C 610.624,475.369 609.957,475.702 609.5,476.5C 606.746,482.347 603.246,487.68 599,492.5C 598.517,493.448 598.351,494.448 598.5,495.5C 597.761,495.369 597.094,495.536 596.5,496C 591.889,501.433 587.222,506.6 582.5,511.5C 575.016,515.534 567.35,519.367 559.5,523C 543.434,527.79 527.434,527.623 511.5,522.5C 508.004,534.52 504.171,546.52 500,558.5C 499.047,561.432 498.547,564.432 498.5,567.5C 496.975,570.079 495.641,572.746 494.5,575.5C 482.814,575.832 471.148,575.499 459.5,574.5C 460.309,572.929 460.643,571.262 460.5,569.5C 460.5,568.167 460.5,566.833 460.5,565.5C 469.437,539.105 477.77,512.438 485.5,485.5C 486.13,481.952 487.13,478.619 488.5,475.5C 490.308,474.082 490.975,472.082 490.5,469.5C 493.62,459.59 496.453,449.59 499,439.5C 499.667,438.833 500.333,438.167 501,437.5C 502.945,429.172 504.778,420.839 506.5,412.5C 508.645,407.224 510.312,401.724 511.5,396C 522.495,395.5 533.495,395.333 544.5,395.5C 544.058,401.712 542.725,407.712 540.5,413.5C 540.833,413.833 541.167,414.167 541.5,414.5C 550.283,404.777 560.95,398.111 573.5,394.5C 580.685,394.098 588.018,394.098 595.5,394.5 Z M 578.5,426.5 C 578.5,426.833 578.5,427.167 578.5,427.5C 581.084,435.788 581.084,444.122 578.5,452.5C 576.108,458.837 573.608,465.171 571,471.5C 566.705,477.299 562.205,482.966 557.5,488.5C 553.009,491.247 548.343,493.747 543.5,496C 537.86,496.905 532.36,496.405 527,494.5C 525.779,493.728 524.779,492.728 524,491.5C 526.258,479.3 529.424,467.3 533.5,455.5C 536.709,449.761 540.209,444.095 544,438.5C 551.236,428.014 560.402,422.681 571.5,422.5C 573.725,424.11 576.059,425.443 578.5,426.5 Z"/></g>
<g><path style="opacity:0.514" fill="#98a5c9" d="M 723.5,393.5 C 718.177,393.093 712.844,392.76 707.5,392.5C 702.893,392.316 698.56,392.983 694.5,394.5C 687.373,396.032 680.373,398.032 673.5,400.5C 673.953,399.542 674.619,398.708 675.5,398C 678.637,397.399 681.637,396.399 684.5,395C 692.225,392.796 700.058,391.296 708,390.5C 713.145,390.881 718.311,391.881 723.5,393.5 Z"/></g>
<g><path style="opacity:1" fill="#04288a" d="M 723.5,394.5 C 726.704,395.901 730.037,396.901 733.5,397.5C 735.247,399.903 737.58,401.569 740.5,402.5C 741.279,404.677 742.613,406.344 744.5,407.5C 749.108,417.031 750.274,427.031 748,437.5C 745.623,443.513 742.789,449.18 739.5,454.5C 738.833,455.833 737.833,456.833 736.5,457.5C 731.317,460.256 726.317,463.256 721.5,466.5C 710.472,469.937 699.139,472.271 687.5,473.5C 678.808,473.169 670.141,473.502 661.5,474.5C 660.023,479.354 660.523,484.021 663,488.5C 664.857,491.2 667.357,492.866 670.5,493.5C 671.574,495.284 673.24,496.451 675.5,497C 687.789,499.605 699.456,498.439 710.5,493.5C 715.289,493.346 719.622,492.013 723.5,489.5C 724.5,489.5 725.5,489.5 726.5,489.5C 723.129,498.997 720.129,508.663 717.5,518.5C 713.663,519.445 709.996,520.778 706.5,522.5C 699.731,523.624 693.064,524.624 686.5,525.5C 675.178,526.768 663.845,526.435 652.5,524.5C 650.901,524.768 649.568,524.434 648.5,523.5C 645.839,520.498 642.505,518.498 638.5,517.5C 638.043,515.227 636.71,513.894 634.5,513.5C 626.748,502.059 623.581,489.392 625,475.5C 628.425,446.313 641.925,422.98 665.5,405.5C 668.54,404.32 671.206,402.653 673.5,400.5C 680.373,398.032 687.373,396.032 694.5,394.5C 704.167,393.167 713.833,393.167 723.5,394.5 Z M 708.5,422.5 C 714.466,430.468 712.799,436.634 703.5,441C 694.004,443.622 684.337,445.122 674.5,445.5C 673.139,445.212 671.806,444.879 670.5,444.5C 678.19,427.024 690.857,419.69 708.5,422.5 Z"/></g>
<g><path style="opacity:0.741" fill="#7387bc" d="M 776.5,395.5 C 787.654,394.505 798.988,394.172 810.5,394.5C 810.533,399.099 809.867,403.599 808.5,408C 808.667,408.833 808.833,409.667 809,410.5C 809.417,409.244 810.25,408.577 811.5,408.5C 810.886,410.723 809.552,412.389 807.5,413.5C 807.167,412.5 806.833,411.5 806.5,410.5C 807.685,405.865 808.685,401.198 809.5,396.5C 798.52,395.501 787.52,395.168 776.5,395.5 Z"/></g>
<g><path style="opacity:1" fill="#04288a" d="M 865.5,394.5 C 871.65,396.657 876.65,400.323 880.5,405.5C 882.021,410.79 882.687,416.29 882.5,422C 882.499,426.015 882.165,429.849 881.5,433.5C 879.305,443.129 876.971,452.795 874.5,462.5C 874.5,462.833 874.5,463.167 874.5,463.5C 872.719,466.274 871.385,469.274 870.5,472.5C 868.374,476.445 867.374,480.778 867.5,485.5C 863.362,496.282 859.529,507.282 856,518.5C 855.506,520.134 855.34,521.801 855.5,523.5C 843.167,523.5 830.833,523.5 818.5,523.5C 821.268,510.283 824.935,497.283 829.5,484.5C 829.5,484.167 829.5,483.833 829.5,483.5C 831.871,480.363 832.871,476.696 832.5,472.5C 835.742,466.693 837.742,460.36 838.5,453.5C 840.279,448.044 841.613,442.377 842.5,436.5C 843.152,435.551 843.486,434.385 843.5,433C 843.607,430.779 842.94,428.946 841.5,427.5C 839.753,422.457 836.086,420.124 830.5,420.5C 826.567,420.846 822.9,422.012 819.5,424C 818.29,425.039 817.29,426.206 816.5,427.5C 814.246,428.415 812.246,429.748 810.5,431.5C 805.564,438.369 801.398,445.702 798,453.5C 791.156,475.555 784.323,497.555 777.5,519.5C 776.735,520.66 775.735,521.66 774.5,522.5C 763.201,521.867 751.867,521.867 740.5,522.5C 740.5,521.5 740.5,520.5 740.5,519.5C 743.003,510.639 745.336,501.639 747.5,492.5C 747.5,492.167 747.5,491.833 747.5,491.5C 749.117,489.879 750.284,487.879 751,485.5C 753.738,478.105 755.571,470.438 756.5,462.5C 757.624,459.84 758.957,457.173 760.5,454.5C 762.335,446.353 764.335,438.353 766.5,430.5C 768.04,428.162 768.706,425.495 768.5,422.5C 769.935,420.402 771.102,418.069 772,415.5C 772.969,408.669 774.469,402.003 776.5,395.5C 787.52,395.168 798.52,395.501 809.5,396.5C 808.685,401.198 807.685,405.865 806.5,410.5C 806.833,411.5 807.167,412.5 807.5,413.5C 809.552,412.389 810.886,410.723 811.5,408.5C 812.922,408.291 814.255,407.791 815.5,407C 818.794,404.344 822.127,401.678 825.5,399C 829.468,397.962 833.135,396.462 836.5,394.5C 837.5,394.5 838.5,394.5 839.5,394.5C 848.442,393.258 857.109,393.258 865.5,394.5 Z"/></g>
<g><path style="opacity:0.984" fill="#314c99" d="M 97.5,396.5 C 109.655,395.505 121.989,395.171 134.5,395.5C 134.5,396.5 134.5,397.5 134.5,398.5C 134.167,398.5 133.833,398.5 133.5,398.5C 121.88,396.521 109.88,395.854 97.5,396.5 Z"/></g>
<g><path style="opacity:0.984" fill="#324d9a" d="M 175.5,396.5 C 175.5,396.167 175.5,395.833 175.5,395.5C 188.184,395.168 200.851,395.501 213.5,396.5C 213.376,397.107 213.043,397.44 212.5,397.5C 200.345,396.505 188.011,396.171 175.5,396.5 Z"/></g>
<g><path style="opacity:0.753" fill="#8090c0" d="M 723.5,394.5 C 723.5,394.167 723.5,393.833 723.5,393.5C 727.297,393.872 730.63,395.206 733.5,397.5C 730.037,396.901 726.704,395.901 723.5,394.5 Z"/></g>
<g><path style="opacity:1" fill="#03278a" d="M 97.5,396.5 C 109.88,395.854 121.88,396.521 133.5,398.5C 131.084,406.077 129.084,413.743 127.5,421.5C 124.407,428.854 122.074,436.521 120.5,444.5C 116.115,454.327 112.782,464.661 110.5,475.5C 108.544,480.087 108.211,484.754 109.5,489.5C 111.81,497.469 117.144,500.302 125.5,498C 128.025,497.576 130.025,496.41 131.5,494.5C 131.833,494.5 132.167,494.5 132.5,494.5C 139.323,490.35 144.323,484.683 147.5,477.5C 149.973,473.229 152.473,468.896 155,464.5C 160.196,449.012 164.696,433.346 168.5,417.5C 171.7,410.902 174.033,403.902 175.5,396.5C 188.011,396.171 200.345,396.505 212.5,397.5C 209.534,407.36 206.868,417.36 204.5,427.5C 201.434,434.718 199.101,442.385 197.5,450.5C 197.5,450.833 197.5,451.167 197.5,451.5C 194.876,456.038 193.209,461.038 192.5,466.5C 191.768,467.808 190.934,469.142 190,470.5C 188.607,477.419 186.607,484.085 184,490.5C 182.494,496.483 181.328,502.483 180.5,508.5C 178.413,512.49 177.08,516.823 176.5,521.5C 165.873,522.466 155.373,522.799 145,522.5C 144.5,522.167 144,521.833 143.5,521.5C 144.348,519.591 144.682,517.591 144.5,515.5C 144.5,514.167 144.5,512.833 144.5,511.5C 145.451,510.081 145.784,508.415 145.5,506.5C 142.633,506.369 140.967,507.703 140.5,510.5C 134.899,514.93 128.899,518.763 122.5,522C 117.362,524.118 112.029,525.285 106.5,525.5C 100.131,525.653 93.7974,525.32 87.5,524.5C 85.1944,524.007 82.861,523.674 80.5,523.5C 80.0269,522.094 79.0269,521.427 77.5,521.5C 77.5,521.167 77.5,520.833 77.5,520.5C 74.736,516.402 72.4027,512.068 70.5,507.5C 70.0266,496.675 71.0266,486.008 73.5,475.5C 78.5098,457.475 83.5098,439.475 88.5,421.5C 89.1174,421.389 89.6174,421.056 90,420.5C 90.9495,416.314 92.1162,412.314 93.5,408.5C 94.1174,408.389 94.6174,408.056 95,407.5C 95.8494,404.479 96.6827,401.479 97.5,398.5C 97.5,397.833 97.5,397.167 97.5,396.5 Z"/></g>
<g><path style="opacity:0.427" fill="#919ec6" d="M 480.5,420.5 C 473.906,406.356 462.906,397.689 447.5,394.5C 443.258,393.032 438.758,392.366 434,392.5C 429.242,392.366 424.742,393.032 420.5,394.5C 412.461,395.848 404.794,398.182 397.5,401.5C 418.049,389.558 439.049,388.058 460.5,397C 470.585,402.049 477.251,409.882 480.5,420.5 Z"/></g>
<g><path style="opacity:0.992" fill="#324c9b" d="M 447.5,394.5 C 438.504,393.249 429.504,393.249 420.5,394.5C 424.742,393.032 429.242,392.366 434,392.5C 438.758,392.366 443.258,393.032 447.5,394.5 Z"/></g>
<g><path style="opacity:0.212" fill="#8898c4" d="M 175.5,395.5 C 188.323,394.505 201.323,394.171 214.5,394.5C 213.987,398.553 213.154,402.553 212,406.5C 209.77,413.696 207.27,420.696 204.5,427.5C 206.868,417.36 209.534,407.36 212.5,397.5C 213.043,397.44 213.376,397.107 213.5,396.5C 200.851,395.501 188.184,395.168 175.5,395.5 Z"/></g>
<g><path style="opacity:0.741" fill="#8b9ac4" d="M 615.5,407.5 C 612.062,404.565 608.729,401.399 605.5,398C 602.242,396.533 598.908,395.367 595.5,394.5C 592.114,393.03 588.447,392.363 584.5,392.5C 580.553,392.363 576.886,393.03 573.5,394.5C 560.95,398.111 550.283,404.777 541.5,414.5C 541.167,414.167 540.833,413.833 540.5,413.5C 542.725,407.712 544.058,401.712 544.5,395.5C 533.495,395.333 522.495,395.5 511.5,396C 510.312,401.724 508.645,407.224 506.5,412.5C 507.39,406.545 508.724,400.712 510.5,395C 522.167,394.333 533.833,394.333 545.5,395C 546.022,395.561 546.355,396.228 546.5,397C 544.756,401.381 543.923,405.881 544,410.5C 559.081,394.582 577.248,388.749 598.5,393C 601.469,394.484 604.469,395.984 607.5,397.5C 609.19,400.024 611.357,402.024 614,403.5C 614.791,404.745 615.291,406.078 615.5,407.5 Z"/></g>
<g><path style="opacity:1" fill="#284294" d="M 595.5,394.5 C 588.018,394.098 580.685,394.098 573.5,394.5C 576.886,393.03 580.553,392.363 584.5,392.5C 588.447,392.363 592.114,393.03 595.5,394.5 Z"/></g>
<g><path style="opacity:0.325" fill="#929fc7" d="M 295.5,422.5 C 298.482,422.963 301.482,423.296 304.5,423.5C 306.515,424.924 308.848,425.59 311.5,425.5C 313.136,416.384 315.803,407.55 319.5,399C 314.761,396.73 309.761,395.23 304.5,394.5C 298.916,392.966 293.083,392.299 287,392.5C 279.493,392.073 272.326,393.073 265.5,395.5C 258.955,396.386 252.622,398.053 246.5,400.5C 247.058,399.21 248.058,398.377 249.5,398C 272.662,389.364 295.329,388.698 317.5,396C 319.18,396.347 320.18,397.347 320.5,399C 317.543,408.103 314.71,417.27 312,426.5C 311.439,427.022 310.772,427.355 310,427.5C 305.111,425.638 300.278,423.971 295.5,422.5 Z"/></g>
<g><path style="opacity:0.992" fill="#2f4999" d="M 304.5,394.5 C 291.928,393.29 278.928,393.623 265.5,395.5C 272.326,393.073 279.493,392.073 287,392.5C 293.083,392.299 298.916,392.966 304.5,394.5 Z"/></g>
<g><path style="opacity:0.627" fill="#8b98c2" d="M 733.5,397.5 C 734.552,397.351 735.552,397.517 736.5,398C 737.699,399.694 739.032,401.194 740.5,402.5C 737.58,401.569 735.247,399.903 733.5,397.5 Z"/></g>
<g><path style="opacity:0.867" fill="#8292c1" d="M 836.5,394.5 C 833.135,396.462 829.468,397.962 825.5,399C 822.127,401.678 818.794,404.344 815.5,407C 814.255,407.791 812.922,408.291 811.5,408.5C 818.392,401.277 826.726,396.611 836.5,394.5 Z"/></g>
<g><path style="opacity:0.992" fill="#324a98" d="M 97.5,398.5 C 96.6827,401.479 95.8494,404.479 95,407.5C 94.6174,408.056 94.1174,408.389 93.5,408.5C 93.5172,406.435 93.8505,404.435 94.5,402.5C 94.5,402.167 94.5,401.833 94.5,401.5C 95.7281,400.694 96.7281,399.694 97.5,398.5 Z"/></g>
<g><path style="opacity:0.325" fill="#93a4d0" d="M 397.5,401.5 C 396.713,403.104 395.38,403.771 393.5,403.5C 394.514,402.326 395.847,401.66 397.5,401.5 Z"/></g>
<g><path style="opacity:0.427" fill="#95a2c8" d="M 776.5,395.5 C 774.469,402.003 772.969,408.669 772,415.5C 771.102,418.069 769.935,420.402 768.5,422.5C 770.601,414.255 772.601,405.922 774.5,397.5C 774.747,396.287 775.414,395.62 776.5,395.5 Z"/></g>
<g><path style="opacity:0.212" fill="#9aa7ca" d="M 673.5,400.5 C 671.206,402.653 668.54,404.32 665.5,405.5C 667.418,402.862 670.085,401.195 673.5,400.5 Z"/></g>
<g><path style="opacity:0.427" fill="#929ec4" d="M 740.5,402.5 C 742.997,403.129 744.33,404.796 744.5,407.5C 742.613,406.344 741.279,404.677 740.5,402.5 Z"/></g>
<g><path style="opacity:0.627" fill="#8f9ec8" d="M 393.5,403.5 C 393.027,404.906 392.027,405.573 390.5,405.5C 390.973,404.094 391.973,403.427 393.5,403.5 Z"/></g>
<g><path style="opacity:0.573" fill="#8d9bc5" d="M 133.5,398.5 C 133.833,398.5 134.167,398.5 134.5,398.5C 133.124,406.616 130.791,414.283 127.5,421.5C 129.084,413.743 131.084,406.077 133.5,398.5 Z"/></g>
<g><path style="opacity:0.741" fill="#8e9dc6" d="M 615.5,407.5 C 618.523,411.223 620.189,415.556 620.5,420.5C 618.646,416.275 616.979,411.942 615.5,407.5 Z"/></g>
<g><path style="opacity:0.078" fill="#a5afca" d="M 880.5,405.5 C 883.4,410.13 884.733,415.297 884.5,421C 884.206,425.854 883.706,430.688 883,435.5C 882.722,436.416 882.222,437.082 881.5,437.5C 881.5,436.167 881.5,434.833 881.5,433.5C 882.165,429.849 882.499,426.015 882.5,422C 882.687,416.29 882.021,410.79 880.5,405.5 Z"/></g>
<g><path style="opacity:0.867" fill="#8c99c3" d="M 175.5,395.5 C 175.5,395.833 175.5,396.167 175.5,396.5C 174.033,403.902 171.7,410.902 168.5,417.5C 170.048,411.013 171.715,404.513 173.5,398C 173.684,396.624 174.351,395.791 175.5,395.5 Z"/></g>
<g><path style="opacity:0.514" fill="#8c9ac3" d="M 244.5,401.5 C 236.877,407.122 229.877,413.456 223.5,420.5C 227.987,411.344 234.987,405.011 244.5,401.5 Z"/></g>
<g><path style="opacity:0.573" fill="#98a6cb" d="M 94.5,402.5 C 93.8505,404.435 93.5172,406.435 93.5,408.5C 92.1162,412.314 90.9495,416.314 90,420.5C 89.6174,421.056 89.1174,421.389 88.5,421.5C 89.8889,415.495 91.3889,409.495 93,403.5C 93.3826,402.944 93.8826,402.611 94.5,402.5 Z"/></g>
<g><path style="opacity:0.627" fill="#818fbd" d="M 278.5,419.5 C 282.458,419.251 286.124,419.918 289.5,421.5C 280.472,420.309 272.139,421.976 264.5,426.5C 265.252,424.9 266.252,423.4 267.5,422C 271.07,420.69 274.737,419.857 278.5,419.5 Z"/></g>
<g><path style="opacity:1" fill="#3b4a98" d="M 278.5,419.5 C 287.554,418.137 296.221,419.47 304.5,423.5C 301.482,423.296 298.482,422.963 295.5,422.5C 293.379,422.675 291.379,422.341 289.5,421.5C 286.124,419.918 282.458,419.251 278.5,419.5 Z"/></g>
<g><path style="opacity:0.212" fill="#8f9cc4" d="M 841.5,427.5 C 839.48,425.493 837.147,423.827 834.5,422.5C 831.645,422.722 828.645,422.889 825.5,423C 822.609,424.727 819.609,426.227 816.5,427.5C 817.29,426.206 818.29,425.039 819.5,424C 822.9,422.012 826.567,420.846 830.5,420.5C 836.086,420.124 839.753,422.457 841.5,427.5 Z"/></g>
<g><path style="opacity:0.325" fill="#9facce" d="M 223.5,420.5 C 223.34,422.153 222.674,423.486 221.5,424.5C 221.229,422.62 221.896,421.287 223.5,420.5 Z"/></g>
<g><path style="opacity:0.573" fill="#7787bc" d="M 429.5,421.5 C 426.287,421.19 423.287,421.523 420.5,422.5C 417.021,424.403 413.354,426.07 409.5,427.5C 415.015,421.397 421.682,419.397 429.5,421.5 Z"/></g>
<g><path style="opacity:0.573" fill="#96a4ca" d="M 127.5,421.5 C 126.532,429.727 124.198,437.394 120.5,444.5C 122.074,436.521 124.407,428.854 127.5,421.5 Z"/></g>
<g><path style="opacity:0.514" fill="#8493c0" d="M 390.5,405.5 C 382.373,411.337 374.873,418.004 368,425.5C 362.079,432.417 357.412,440.084 354,448.5C 352.961,449.71 351.794,450.71 350.5,451.5C 358.732,431.684 372.065,416.351 390.5,405.5 Z"/></g>
<g><path style="opacity:0.427" fill="#98a4c9" d="M 574.5,421.5 C 575.833,423.167 577.167,424.833 578.5,426.5C 576.059,425.443 573.725,424.11 571.5,422.5C 560.402,422.681 551.236,428.014 544,438.5C 540.209,444.095 536.709,449.761 533.5,455.5C 537.996,439.839 547.663,428.672 562.5,422C 566.486,421.501 570.486,421.334 574.5,421.5 Z"/></g>
<g><path style="opacity:0.992" fill="#3f56a1" d="M 574.5,421.5 C 577.419,422.913 579.919,424.913 582,427.5C 582.495,429.473 582.662,431.473 582.5,433.5C 581.694,432.003 581.028,430.336 580.5,428.5C 580.043,427.702 579.376,427.369 578.5,427.5C 578.5,427.167 578.5,426.833 578.5,426.5C 577.167,424.833 575.833,423.167 574.5,421.5 Z"/></g>
<g><path style="opacity:0.741" fill="#95a2c9" d="M 168.5,417.5 C 164.696,433.346 160.196,449.012 155,464.5C 152.473,468.896 149.973,473.229 147.5,477.5C 148.805,472.72 150.805,468.22 153.5,464C 158.13,448.292 163.13,432.792 168.5,417.5 Z"/></g>
<g><path style="opacity:0.573" fill="#93a3cc" d="M 768.5,422.5 C 768.706,425.495 768.04,428.162 766.5,430.5C 766.565,427.572 767.232,424.905 768.5,422.5 Z"/></g>
<g><path style="opacity:0.753" fill="#7e8ebd" d="M 620.5,420.5 C 621.413,424.484 622.079,428.651 622.5,433C 622.047,441.122 620.714,448.956 618.5,456.5C 620.021,444.559 620.688,432.559 620.5,420.5 Z"/></g>
<g><path style="opacity:0.325" fill="#8997c3" d="M 816.5,427.5 C 809.208,435.38 803.375,444.38 799,454.5C 792.304,477.829 785.137,500.829 777.5,523.5C 777.5,522.167 777.5,520.833 777.5,519.5C 784.323,497.555 791.156,475.555 798,453.5C 801.398,445.702 805.564,438.369 810.5,431.5C 812.246,429.748 814.246,428.415 816.5,427.5 Z"/></g>
<g><path style="opacity:0.741" fill="#808fbd" d="M 841.5,427.5 C 842.94,428.946 843.607,430.779 843.5,433C 843.486,434.385 843.152,435.551 842.5,436.5C 842.12,433.804 841.787,430.804 841.5,427.5 Z"/></g>
<g><path style="opacity:0.573" fill="#8c9cc9" d="M 221.5,424.5 C 221.142,427.267 220.475,429.933 219.5,432.5C 219.167,432.5 218.833,432.5 218.5,432.5C 218.903,429.514 219.903,426.848 221.5,424.5 Z"/></g>
<g><path style="opacity:0.325" fill="#9ba8cb" d="M 481.5,421.5 C 483.011,423.476 483.844,425.809 484,428.5C 486.608,445.561 483.442,461.227 474.5,475.5C 476.88,468.531 479.38,461.531 482,454.5C 484.074,443.457 483.908,432.457 481.5,421.5 Z"/></g>
<g><path style="opacity:0.076" fill="#b5bdcb" d="M 578.5,427.5 C 579.376,427.369 580.043,427.702 580.5,428.5C 581.028,430.336 581.694,432.003 582.5,433.5C 582.5,433.833 582.5,434.167 582.5,434.5C 582.197,440.558 581.531,446.558 580.5,452.5C 579.833,452.5 579.167,452.5 578.5,452.5C 581.084,444.122 581.084,435.788 578.5,427.5 Z"/></g>
<g><path style="opacity:0.573" fill="#8997c2" d="M 264.5,426.5 C 262.732,429.162 262.065,432.162 262.5,435.5C 261.883,435.389 261.383,435.056 261,434.5C 259.784,430.623 260.951,427.957 264.5,426.5 Z"/></g>
<g><path style="opacity:0.427" fill="#8d9bc4" d="M 744.5,407.5 C 746.984,409.12 748.484,411.453 749,414.5C 752.283,427.744 750.283,440.077 743,451.5C 741.961,452.71 740.794,453.71 739.5,454.5C 742.789,449.18 745.623,443.513 748,437.5C 750.274,427.031 749.108,417.031 744.5,407.5 Z"/></g>
<g><path style="opacity:0.212" fill="#9ba8ca" d="M 204.5,427.5 C 203.139,435.574 200.806,443.24 197.5,450.5C 199.101,442.385 201.434,434.718 204.5,427.5 Z"/></g>
<g><path style="opacity:0.627" fill="#808fbe" d="M 881.5,433.5 C 881.5,434.833 881.5,436.167 881.5,437.5C 880.546,446.328 878.213,454.662 874.5,462.5C 876.971,452.795 879.305,443.129 881.5,433.5 Z"/></g>
<g><path style="opacity:0.992" fill="#5f70af" d="M 218.5,432.5 C 218.833,432.5 219.167,432.5 219.5,432.5C 219.26,438.227 219.593,443.894 220.5,449.5C 220.167,449.5 219.833,449.5 219.5,449.5C 217.287,444.041 216.953,438.374 218.5,432.5 Z"/></g>
<g><path style="opacity:0.212" fill="#94a1c8" d="M 262.5,435.5 C 264.854,437.188 266.854,439.188 268.5,441.5C 265.432,440.433 263.432,438.433 262.5,435.5 Z"/></g>
<g><path style="opacity:0.212" fill="#8896c2" d="M 665.5,405.5 C 641.925,422.98 628.425,446.313 625,475.5C 623.581,489.392 626.748,502.059 634.5,513.5C 631.917,510.734 629.417,507.734 627,504.5C 619.218,474.069 625.218,446.735 645,422.5C 650.852,415.467 657.685,409.8 665.5,405.5 Z"/></g>
<g><path style="opacity:0.741" fill="#96a2c7" d="M 409.5,427.5 C 404.327,433.859 399.66,440.526 395.5,447.5C 395.298,445.011 395.798,442.677 397,440.5C 400.67,435.664 404.836,431.331 409.5,427.5 Z"/></g>
<g><path style="opacity:0.867" fill="#8896c2" d="M 88.5,421.5 C 83.5098,439.475 78.5098,457.475 73.5,475.5C 72.8333,476.167 72.1667,476.833 71.5,477.5C 72.1389,473.473 72.9722,469.473 74,465.5C 78.5905,450.676 83.4238,436.009 88.5,421.5 Z"/></g>
<g><path style="opacity:0.212" fill="#93a1c7" d="M 766.5,430.5 C 764.335,438.353 762.335,446.353 760.5,454.5C 758.957,457.173 757.624,459.84 756.5,462.5C 759.224,451.593 762.557,440.926 766.5,430.5 Z"/></g>
<g><path style="opacity:0.427" fill="#919fc7" d="M 506.5,412.5 C 504.778,420.839 502.945,429.172 501,437.5C 500.333,438.167 499.667,438.833 499,439.5C 496.453,449.59 493.62,459.59 490.5,469.5C 490.167,469.5 489.833,469.5 489.5,469.5C 494.55,450.197 500.217,431.197 506.5,412.5 Z"/></g>
<g><path style="opacity:0.573" fill="#9ca8cb" d="M 708.5,422.5 C 710.371,422.859 711.871,423.859 713,425.5C 714.652,432.858 712.152,438.358 705.5,442C 700.949,443.702 696.283,444.868 691.5,445.5C 683.868,446.358 676.201,446.691 668.5,446.5C 668.5,445.5 668.5,444.5 668.5,443.5C 674.556,429.454 685.223,421.454 700.5,419.5C 703.658,419.421 706.325,420.421 708.5,422.5 Z M 708.5,422.5 C 714.466,430.468 712.799,436.634 703.5,441C 694.004,443.622 684.337,445.122 674.5,445.5C 673.139,445.212 671.806,444.879 670.5,444.5C 678.19,427.024 690.857,419.69 708.5,422.5 Z"/></g>
<g><path style="opacity:0.992" fill="#2c4798" d="M 668.5,443.5 C 668.5,444.5 668.5,445.5 668.5,446.5C 676.201,446.691 683.868,446.358 691.5,445.5C 691.082,446.222 690.416,446.722 689.5,447C 682.174,447.5 674.841,447.666 667.5,447.5C 667.232,445.901 667.566,444.568 668.5,443.5 Z"/></g>
<g><path style="opacity:0.992" fill="#384f9c" d="M 582.5,434.5 C 583.115,438.724 583.448,443.057 583.5,447.5C 583.043,449.598 582.043,451.264 580.5,452.5C 581.531,446.558 582.197,440.558 582.5,434.5 Z"/></g>
<g><path style="opacity:0.212" fill="#a4b0d0" d="M 842.5,436.5 C 841.613,442.377 840.279,448.044 838.5,453.5C 838.758,447.472 840.092,441.806 842.5,436.5 Z"/></g>
<g><path style="opacity:0.325" fill="#96a3c8" d="M 219.5,449.5 C 219.833,449.5 220.167,449.5 220.5,449.5C 222.749,453.754 225.415,457.754 228.5,461.5C 225.758,460.062 223.424,458.062 221.5,455.5C 220.253,453.677 219.586,451.677 219.5,449.5 Z"/></g>
<g><path style="opacity:0.212" fill="#919dc4" d="M 268.5,441.5 C 279.153,445.243 288.653,450.909 297,458.5C 298.75,460.734 300.25,463.068 301.5,465.5C 297.503,461.031 293.17,456.864 288.5,453C 281.62,449.35 274.953,445.517 268.5,441.5 Z"/></g>
<g><path style="opacity:0.325" fill="#94a2ca" d="M 533.5,455.5 C 529.424,467.3 526.258,479.3 524,491.5C 524.779,492.728 525.779,493.728 527,494.5C 532.36,496.405 537.86,496.905 543.5,496C 548.343,493.747 553.009,491.247 557.5,488.5C 557.586,489.496 557.252,490.329 556.5,491C 552.284,494.211 547.617,496.545 542.5,498C 534.795,499.2 527.961,497.366 522,492.5C 521.927,489.842 522.26,487.176 523,484.5C 525.726,475.804 528.393,467.137 531,458.5C 531.852,457.429 532.685,456.429 533.5,455.5 Z"/></g>
<g><path style="opacity:0.097" fill="#bdc3c9" d="M 618.5,456.5 C 618.946,459.01 618.28,461.01 616.5,462.5C 616.5,461.833 616.5,461.167 616.5,460.5C 616.989,459.005 617.655,457.671 618.5,456.5 Z"/></g>
<g><path style="opacity:0.325" fill="#a3aecc" d="M 197.5,451.5 C 196.606,456.91 194.939,461.91 192.5,466.5C 193.209,461.038 194.876,456.038 197.5,451.5 Z"/></g>
<g><path style="opacity:0.212" fill="#8998c5" d="M 736.5,457.5 C 733.264,460.797 729.597,463.63 725.5,466C 724.207,466.49 722.873,466.657 721.5,466.5C 726.317,463.256 731.317,460.256 736.5,457.5 Z"/></g>
<g><path style="opacity:0.627" fill="#8e9bc4" d="M 120.5,444.5 C 117.159,456.535 113.825,468.535 110.5,480.5C 110.5,478.833 110.5,477.167 110.5,475.5C 112.782,464.661 116.115,454.327 120.5,444.5 Z"/></g>
<g><path style="opacity:0.627" fill="#8e9cc5" d="M 228.5,461.5 C 231.455,463.122 234.122,465.122 236.5,467.5C 232.706,466.972 230.039,464.972 228.5,461.5 Z"/></g>
<g><path style="opacity:0.988" fill="#8593c1" d="M 838.5,453.5 C 837.742,460.36 835.742,466.693 832.5,472.5C 833.721,465.841 835.721,459.508 838.5,453.5 Z"/></g>
<g><path style="opacity:0.835" fill="#7d88b5" d="M 236.5,467.5 C 239.285,466.916 240.952,467.916 241.5,470.5C 239.326,470.25 237.659,469.25 236.5,467.5 Z"/></g>
<g><path style="opacity:0.427" fill="#9ca9ca" d="M 874.5,463.5 C 873.576,469.175 871.909,474.509 869.5,479.5C 869.674,477.139 870.007,474.806 870.5,472.5C 871.385,469.274 872.719,466.274 874.5,463.5 Z"/></g>
<g><path style="opacity:0.212" fill="#a2afd1" d="M 241.5,470.5 C 243.38,470.229 244.713,470.896 245.5,472.5C 243.847,472.34 242.514,471.674 241.5,470.5 Z"/></g>
<g><path style="opacity:0.427" fill="#8f9dc6" d="M 616.5,460.5 C 616.5,461.167 616.5,461.833 616.5,462.5C 615.63,467.223 613.964,471.556 611.5,475.5C 612.931,470.331 614.598,465.331 616.5,460.5 Z"/></g>
<g><path style="opacity:0.914" fill="#7584b7" d="M 245.5,472.5 C 248.393,472.031 250.393,473.031 251.5,475.5C 249.456,474.492 247.456,473.492 245.5,472.5 Z"/></g>
<g><path style="opacity:0.573" fill="#95a3ca" d="M 420.5,422.5 C 423.287,421.523 426.287,421.19 429.5,421.5C 435.665,422.829 439.832,426.495 442,432.5C 443.799,452.227 438.633,469.894 426.5,485.5C 425.431,486.91 424.097,487.91 422.5,488.5C 431.345,476.558 437.512,463.225 441,448.5C 443.819,430.588 436.986,421.921 420.5,422.5 Z"/></g>
<g><path style="opacity:0.325" fill="#94a2c9" d="M 721.5,466.5 C 717.278,469.191 712.612,471.024 707.5,472C 700.88,473.236 694.213,474.069 687.5,474.5C 687.5,474.167 687.5,473.833 687.5,473.5C 699.139,472.271 710.472,469.937 721.5,466.5 Z"/></g>
<g><path style="opacity:1" fill="#4e5ea4" d="M 489.5,469.5 C 489.833,469.5 490.167,469.5 490.5,469.5C 490.975,472.082 490.308,474.082 488.5,475.5C 488.5,474.833 488.5,474.167 488.5,473.5C 488.232,471.901 488.566,470.568 489.5,469.5 Z"/></g>
<g><path style="opacity:0.099" fill="#c9cdc9" d="M 666.5,475.5 C 672.31,474.51 678.31,474.177 684.5,474.5C 682.782,475.224 680.948,475.891 679,476.5C 674.471,476.062 670.304,475.729 666.5,475.5 Z"/></g>
<g><path style="opacity:0.514" fill="#96a2c7" d="M 350.5,451.5 C 350.027,455.733 349.027,459.733 347.5,463.5C 344.87,473.829 344.87,484.162 347.5,494.5C 348.651,498.497 350.151,502.497 352,506.5C 355.336,510.668 358.836,514.668 362.5,518.5C 357.898,515.733 354.064,512.066 351,507.5C 341.299,488.882 341.132,470.216 350.5,451.5 Z"/></g>
<g><path style="opacity:0.741" fill="#5a70af" d="M 386.5,470.5 C 386.267,475.895 386.6,481.228 387.5,486.5C 386.883,486.389 386.383,486.056 386,485.5C 385.184,480.316 385.35,475.316 386.5,470.5 Z"/></g>
<g><path style="opacity:0.427" fill="#a1adcc" d="M 251.5,475.5 C 253.404,475.738 254.738,476.738 255.5,478.5C 253.596,478.262 252.262,477.262 251.5,475.5 Z"/></g>
<g><path style="opacity:0.573" fill="#96a4ca" d="M 578.5,452.5 C 579.167,452.5 579.833,452.5 580.5,452.5C 577.038,463.828 571.538,474.161 564,483.5C 562.223,485.79 560.056,487.457 557.5,488.5C 562.205,482.966 566.705,477.299 571,471.5C 573.608,465.171 576.108,458.837 578.5,452.5 Z"/></g>
<g><path style="opacity:0.741" fill="#788abe" d="M 832.5,472.5 C 832.871,476.696 831.871,480.363 829.5,483.5C 829.517,479.466 830.517,475.799 832.5,472.5 Z"/></g>
<g><path style="opacity:0.212" fill="#aab6d1" d="M 488.5,473.5 C 488.5,474.167 488.5,474.833 488.5,475.5C 487.13,478.619 486.13,481.952 485.5,485.5C 485.167,485.5 484.833,485.5 484.5,485.5C 485.017,481.778 485.85,478.112 487,474.5C 487.383,473.944 487.883,473.611 488.5,473.5 Z"/></g>
<g><path style="opacity:0.514" fill="#7a8abc" d="M 687.5,473.5 C 687.5,473.833 687.5,474.167 687.5,474.5C 686.5,474.5 685.5,474.5 684.5,474.5C 678.31,474.177 672.31,474.51 666.5,475.5C 661.932,475.083 660.432,477.083 662,481.5C 663.147,486.796 665.98,490.796 670.5,493.5C 667.357,492.866 664.857,491.2 663,488.5C 660.523,484.021 660.023,479.354 661.5,474.5C 670.141,473.502 678.808,473.169 687.5,473.5 Z"/></g>
<g><path style="opacity:0.427" fill="#8b99c3" d="M 611.5,475.5 C 608.375,482.957 604.042,489.624 598.5,495.5C 598.351,494.448 598.517,493.448 599,492.5C 603.246,487.68 606.746,482.347 609.5,476.5C 609.957,475.702 610.624,475.369 611.5,475.5 Z"/></g>
<g><path style="opacity:0.753" fill="#6475af" d="M 870.5,472.5 C 870.007,474.806 869.674,477.139 869.5,479.5C 869.125,481.698 868.458,483.698 867.5,485.5C 867.374,480.778 868.374,476.445 870.5,472.5 Z"/></g>
<g><path style="opacity:0.914" fill="#475ea2" d="M 110.5,475.5 C 110.5,477.167 110.5,478.833 110.5,480.5C 110.5,481.167 110.5,481.833 110.5,482.5C 109.532,484.607 109.198,486.941 109.5,489.5C 108.211,484.754 108.544,480.087 110.5,475.5 Z"/></g>
<g><path style="opacity:0.325" fill="#8391c0" d="M 474.5,475.5 C 472.294,480.387 469.627,485.054 466.5,489.5C 461.506,495.161 456.173,500.494 450.5,505.5C 453.731,500.761 457.564,496.428 462,492.5C 462.483,491.552 462.649,490.552 462.5,489.5C 463.675,489.719 464.675,489.386 465.5,488.5C 467.417,483.277 470.417,478.944 474.5,475.5 Z"/></g>
<g><path style="opacity:0.427" fill="#a1accb" d="M 395.5,447.5 C 391.277,457.058 388.61,467.058 387.5,477.5C 387.976,483.257 389.642,488.591 392.5,493.5C 389.636,491.977 387.969,489.643 387.5,486.5C 386.6,481.228 386.267,475.895 386.5,470.5C 388.029,464.681 389.529,458.681 391,452.5C 392.199,450.424 393.699,448.758 395.5,447.5 Z"/></g>
<g><path style="opacity:0.514" fill="#93a0c5" d="M 147.5,477.5 C 144.323,484.683 139.323,490.35 132.5,494.5C 137.821,489.175 142.821,483.509 147.5,477.5 Z"/></g>
<g><path style="opacity:0.992" fill="#2a4495" d="M 347.5,463.5 C 346.332,473.84 346.332,484.173 347.5,494.5C 344.87,484.162 344.87,473.829 347.5,463.5 Z"/></g>
<g><path style="opacity:0.427" fill="#9aa6c9" d="M 422.5,488.5 C 421.7,490.573 420.367,492.24 418.5,493.5C 417.167,493.833 415.833,494.167 414.5,494.5C 416.8,492.016 419.467,490.016 422.5,488.5 Z"/></g>
<g><path style="opacity:0.573" fill="#8d9bc5" d="M 756.5,462.5 C 755.571,470.438 753.738,478.105 751,485.5C 750.284,487.879 749.117,489.879 747.5,491.5C 749.932,481.545 752.932,471.878 756.5,462.5 Z"/></g>
<g><path style="opacity:0.514" fill="#8c9cc6" d="M 301.5,465.5 C 303.868,469.389 304.868,473.722 304.5,478.5C 304.472,482.236 303.972,485.903 303,489.5C 302.647,492.152 301.48,494.152 299.5,495.5C 303.768,485.753 304.434,475.753 301.5,465.5 Z"/></g>
<g><path style="opacity:0.427" fill="#9ca9ca" d="M 723.5,489.5 C 719.622,492.013 715.289,493.346 710.5,493.5C 714.501,491.411 718.835,490.078 723.5,489.5 Z"/></g>
<g><path style="opacity:0.325" fill="#8999c8" d="M 110.5,482.5 C 109.941,494.574 115.608,499.074 127.5,496C 128.745,495.209 130.078,494.709 131.5,494.5C 130.025,496.41 128.025,497.576 125.5,498C 117.144,500.302 111.81,497.469 109.5,489.5C 109.198,486.941 109.532,484.607 110.5,482.5 Z"/></g>
<g><path style="opacity:0.627" fill="#8997c3" d="M 192.5,466.5 C 188.616,480.625 184.616,494.625 180.5,508.5C 181.328,502.483 182.494,496.483 184,490.5C 186.607,484.085 188.607,477.419 190,470.5C 190.934,469.142 191.768,467.808 192.5,466.5 Z"/></g>
<g><path style="opacity:0.325" fill="#95a4cd" d="M 392.5,493.5 C 399.664,497.09 406.997,497.423 414.5,494.5C 413.4,495.558 412.066,496.392 410.5,497C 405.416,497.778 400.416,497.611 395.5,496.5C 393.5,496.5 392.5,495.5 392.5,493.5 Z"/></g>
<g><path style="opacity:1" fill="#3b4f9c" d="M 418.5,493.5 C 414.517,497.756 409.517,499.423 403.5,498.5C 400.41,498.478 397.743,497.812 395.5,496.5C 400.416,497.611 405.416,497.778 410.5,497C 412.066,496.392 413.4,495.558 414.5,494.5C 415.833,494.167 417.167,493.833 418.5,493.5 Z"/></g>
<g><path style="opacity:0.514" fill="#8897c3" d="M 598.5,495.5 C 594.161,501.839 588.827,507.173 582.5,511.5C 587.222,506.6 591.889,501.433 596.5,496C 597.094,495.536 597.761,495.369 598.5,495.5 Z"/></g>
<g><path style="opacity:0.212" fill="#8a9ac8" d="M 670.5,493.5 C 683.758,497.348 697.091,497.348 710.5,493.5C 699.456,498.439 687.789,499.605 675.5,497C 673.24,496.451 671.574,495.284 670.5,493.5 Z"/></g>
<g><path style="opacity:0.627" fill="#97a4c8" d="M 69.5,484.5 C 69.1746,492.352 69.508,500.018 70.5,507.5C 72.4027,512.068 74.736,516.402 77.5,520.5C 75.9826,520.489 74.8159,519.823 74,518.5C 67.2201,507.749 65.7201,496.415 69.5,484.5 Z"/></g>
<g><path style="opacity:0.988" fill="#4d63a9" d="M 73.5,475.5 C 71.0266,486.008 70.0266,496.675 70.5,507.5C 69.508,500.018 69.1746,492.352 69.5,484.5C 70.2679,482.285 70.9346,479.952 71.5,477.5C 72.1667,476.833 72.8333,476.167 73.5,475.5 Z"/></g>
<g><path style="opacity:0.514" fill="#8996c2" d="M 484.5,485.5 C 484.833,485.5 485.167,485.5 485.5,485.5C 477.77,512.438 469.437,539.105 460.5,565.5C 461.013,561.121 461.847,556.787 463,552.5C 470.026,530.04 477.193,507.707 484.5,485.5 Z"/></g>
<g><path style="opacity:0.573" fill="#8294c6" d="M 144.5,511.5 C 144.719,510.325 144.386,509.325 143.5,508.5C 142.482,509.193 141.482,509.859 140.5,510.5C 140.967,507.703 142.633,506.369 145.5,506.5C 145.784,508.415 145.451,510.081 144.5,511.5 Z"/></g>
<g><path style="opacity:0.627" fill="#8795c1" d="M 255.5,478.5 C 260.11,480.688 261.61,484.355 260,489.5C 258.257,491.321 256.757,493.321 255.5,495.5C 246.35,498.891 237.016,499.391 227.5,497C 218.779,494.818 210.113,492.318 201.5,489.5C 199.368,498.304 197.034,507.137 194.5,516C 194.519,517.833 195.185,519.333 196.5,520.5C 193.512,520.845 192.179,519.512 192.5,516.5C 194.962,506.813 197.962,497.313 201.5,488C 210.79,490.65 220.124,493.317 229.5,496C 238.038,497.158 246.371,496.492 254.5,494C 259.492,489.189 259.826,484.022 255.5,478.5 Z"/></g>
<g><path style="opacity:0.753" fill="#8896c0" d="M 634.5,513.5 C 636.71,513.894 638.043,515.227 638.5,517.5C 636.736,516.674 635.402,515.341 634.5,513.5 Z"/></g>
<g><path style="opacity:0.427" fill="#8897c3" d="M 698.5,525.5 C 701.087,524.251 703.754,523.251 706.5,522.5C 709.996,520.778 713.663,519.445 717.5,518.5C 720.129,508.663 723.129,498.997 726.5,489.5C 725.5,489.5 724.5,489.5 723.5,489.5C 724.78,488.069 726.447,487.402 728.5,487.5C 726.261,498.46 723.094,509.127 719,519.5C 712.467,522.516 705.634,524.516 698.5,525.5 Z"/></g>
<g><path style="opacity:0.427" fill="#98a6cb" d="M 144.5,511.5 C 144.5,512.833 144.5,514.167 144.5,515.5C 143.833,516.5 143.167,517.5 142.5,518.5C 142.171,515.772 142.837,513.438 144.5,511.5 Z"/></g>
<g><path style="opacity:0.573" fill="#9aa7cb" d="M 362.5,518.5 C 364.027,518.427 365.027,519.094 365.5,520.5C 363.973,520.573 362.973,519.906 362.5,518.5 Z"/></g>
<g><path style="opacity:0.835" fill="#8995bc" d="M 638.5,517.5 C 642.505,518.498 645.839,520.498 648.5,523.5C 647.448,523.649 646.448,523.483 645.5,523C 643.097,521.147 640.764,519.314 638.5,517.5 Z"/></g>
<g><path style="opacity:0.427" fill="#adb7ce" d="M 77.5,521.5 C 79.0269,521.427 80.0269,522.094 80.5,523.5C 78.9731,523.573 77.9731,522.906 77.5,521.5 Z"/></g>
<g><path style="opacity:0.835" fill="#818ebc" d="M 196.5,520.5 C 200.622,520.826 204.289,522.16 207.5,524.5C 203.236,524.523 199.569,523.19 196.5,520.5 Z"/></g>
<g><path style="opacity:0.992" fill="#234094" d="M 740.5,519.5 C 740.5,520.5 740.5,521.5 740.5,522.5C 751.867,521.867 763.201,521.867 774.5,522.5C 775.735,521.66 776.735,520.66 777.5,519.5C 777.5,520.833 777.5,522.167 777.5,523.5C 764.833,523.5 752.167,523.5 739.5,523.5C 739.232,521.901 739.566,520.568 740.5,519.5 Z"/></g>
<g><path style="opacity:0.992" fill="#254194" d="M 144.5,515.5 C 144.682,517.591 144.348,519.591 143.5,521.5C 144,521.833 144.5,522.167 145,522.5C 155.373,522.799 165.873,522.466 176.5,521.5C 165.549,523.478 154.216,524.144 142.5,523.5C 142.5,522.167 142.5,520.833 142.5,519.5C 142.5,519.167 142.5,518.833 142.5,518.5C 143.167,517.5 143.833,516.5 144.5,515.5 Z"/></g>
<g><path style="opacity:0.325" fill="#96a6ce" d="M 180.5,508.5 C 179.5,513.833 178.5,519.167 177.5,524.5C 165.5,524.5 153.5,524.5 141.5,524.5C 141.216,522.585 141.549,520.919 142.5,519.5C 142.5,520.833 142.5,522.167 142.5,523.5C 154.216,524.144 165.549,523.478 176.5,521.5C 177.08,516.823 178.413,512.49 180.5,508.5 Z"/></g>
<g><path style="opacity:0.325" fill="#98a6cc" d="M 747.5,492.5 C 745.336,501.639 743.003,510.639 740.5,519.5C 739.566,520.568 739.232,521.901 739.5,523.5C 752.167,523.5 764.833,523.5 777.5,523.5C 764.431,524.83 751.265,524.83 738,523.5C 740.604,512.969 743.77,502.635 747.5,492.5 Z"/></g>
<g><path style="opacity:0.325" fill="#95a3cb" d="M 829.5,484.5 C 824.935,497.283 821.268,510.283 818.5,523.5C 830.833,523.5 843.167,523.5 855.5,523.5C 855.34,521.801 855.506,520.134 856,518.5C 859.529,507.282 863.362,496.282 867.5,485.5C 863.993,498.527 860.326,511.527 856.5,524.5C 843.254,524.823 830.087,524.489 817,523.5C 817.759,518.967 818.926,514.467 820.5,510C 820.167,509.667 819.833,509.333 819.5,509C 823.141,501.748 825.807,494.081 827.5,486C 827.836,484.97 828.503,484.47 829.5,484.5 Z"/></g>
<g><path style="opacity:0.212" fill="#8e9cc6" d="M 299.5,495.5 C 299.611,496.117 299.944,496.617 300.5,497C 287.929,515.767 270.262,525.767 247.5,527C 238.167,527.667 228.833,527.667 219.5,527C 215.233,526.811 211.233,525.977 207.5,524.5C 226.258,527.504 244.924,527.004 263.5,523C 279.084,518.391 291.084,509.224 299.5,495.5 Z"/></g>
<g><path style="opacity:0.992" fill="#374e9b" d="M 706.5,522.5 C 703.754,523.251 701.087,524.251 698.5,525.5C 698.167,525.5 697.833,525.5 697.5,525.5C 693.833,525.5 690.167,525.5 686.5,525.5C 693.064,524.624 699.731,523.624 706.5,522.5 Z"/></g>
<g><path style="opacity:0.741" fill="#8e9dc7" d="M 140.5,510.5 C 140.489,512.017 139.823,513.184 138.5,514C 120.768,527.745 101.435,530.912 80.5,523.5C 82.861,523.674 85.1944,524.007 87.5,524.5C 90.8646,526.039 94.5313,526.706 98.5,526.5C 101.355,526.497 104.022,526.164 106.5,525.5C 112.029,525.285 117.362,524.118 122.5,522C 128.899,518.763 134.899,514.93 140.5,510.5 Z"/></g>
<g><path style="opacity:0.984" fill="#314b99" d="M 87.5,524.5 C 93.7974,525.32 100.131,525.653 106.5,525.5C 104.022,526.164 101.355,526.497 98.5,526.5C 94.5313,526.706 90.8646,526.039 87.5,524.5 Z"/></g>
<g><path style="opacity:0.741" fill="#8897c4" d="M 450.5,505.5 C 427.32,525.792 400.653,531.959 370.5,524C 368.416,523.303 366.749,522.136 365.5,520.5C 371.438,523.384 377.771,525.218 384.5,526C 401.308,527.068 417.308,524.068 432.5,517C 438.387,512.896 444.387,509.062 450.5,505.5 Z"/></g>
<g><path style="opacity:0.741" fill="#8e9dc9" d="M 652.5,524.5 C 663.845,526.435 675.178,526.768 686.5,525.5C 690.167,525.5 693.833,525.5 697.5,525.5C 690.557,526.969 683.391,527.636 676,527.5C 671.5,527.333 667,527.167 662.5,527C 658.867,526.851 655.534,526.018 652.5,524.5 Z"/></g>
<g><path style="opacity:0.627" fill="#8b9ac4" d="M 582.5,511.5 C 561.599,527.734 538.433,531.734 513,523.5C 508.843,538.471 504.009,553.138 498.5,567.5C 498.547,564.432 499.047,561.432 500,558.5C 504.171,546.52 508.004,534.52 511.5,522.5C 527.434,527.623 543.434,527.79 559.5,523C 567.35,519.367 575.016,515.534 582.5,511.5 Z"/></g>
<g><path style="opacity:0.514" fill="#8b98c2" d="M 460.5,565.5 C 460.5,566.833 460.5,568.167 460.5,569.5C 459.833,570.167 459.167,570.833 458.5,571.5C 457.916,569.28 458.583,567.28 460.5,565.5 Z"/></g>
<g><path style="opacity:0.988" fill="#445ea8" d="M 460.5,569.5 C 460.643,571.262 460.309,572.929 459.5,574.5C 471.148,575.499 482.814,575.832 494.5,575.5C 482.674,576.66 470.674,576.826 458.5,576C 457.587,574.586 457.587,573.086 458.5,571.5C 459.167,570.833 459.833,570.167 460.5,569.5 Z"/></g>
<g><path style="opacity:0.325" fill="#a7b2cd" d="M 498.5,567.5 C 498.25,571.102 497.25,574.435 495.5,577.5C 482.833,578.833 470.167,578.833 457.5,577.5C 455.948,575.065 456.281,573.065 458.5,571.5C 457.587,573.086 457.587,574.586 458.5,576C 470.674,576.826 482.674,576.66 494.5,575.5C 495.641,572.746 496.975,570.079 498.5,567.5 Z"/></g>
</svg>
